<svg width="52" height="51" viewBox="0 0 52 51" fill="none" xmlns="http://www.w3.org/2000/svg">
<path d="M22.2008 11.4261C22.2008 9.67373 21.5352 8.19882 20.6299 7.75676C20.3449 7.72528 20.0604 7.69174 19.7759 7.65539C18.7315 7.90522 17.9268 9.49788 17.9268 11.4261C17.9268 13.0088 18.4697 14.3657 19.2417 14.9391C19.7319 14.9808 20.2224 15.0187 20.7134 15.0514C21.5758 14.5618 22.2008 13.124 22.2008 11.4261Z" fill="#FFD9F0"/>
<path d="M34.47 11.4261C34.47 9.48584 33.6541 7.88525 32.6012 7.65078C32.329 7.68558 32.0565 7.71835 31.7841 7.74856C30.8705 8.18064 30.196 9.66323 30.196 11.4261C30.196 13.1204 30.8181 14.5556 31.678 15.0483C32.1731 15.0148 32.6677 14.9767 33.162 14.9342C33.9301 14.3577 34.47 13.0042 34.47 11.4261Z" fill="#FFD9F0"/>
<path d="M19.8056 1.60154C20.1883 1.42645 20.5763 1.26673 20.9694 1.12287C19.6796 1.39855 18.4072 1.77764 17.1647 2.26066C17.1333 2.27295 17.1016 2.28498 17.0699 2.29752C17.0492 2.30571 17.0285 2.31416 17.0075 2.32235C14.9929 3.1238 13.1068 4.18173 11.3891 5.45519C11.4668 5.47925 11.5448 5.50254 11.6225 5.52635C14.0527 3.74632 16.8189 2.39991 19.8056 1.60154Z" fill="#FFD9F0"/>
<path d="M41.0895 45.2C41.1667 45.2238 41.2438 45.2479 41.321 45.2722C44.1738 43.0744 46.5392 40.2723 48.2247 37.0586C48.1585 37.0437 48.0923 37.0289 48.0258 37.0143C46.3332 40.2242 43.9556 43.0178 41.0895 45.2Z" fill="#FFD9F0"/>
<path d="M50.8679 25.5014C50.8679 29.5171 49.9074 33.3119 48.2045 36.6679C48.2707 36.6828 48.3367 36.6973 48.4026 36.7122C50.1039 33.3413 51.0632 29.5332 51.0632 25.5042C51.0632 20.8573 49.7875 16.504 47.5688 12.7763C47.5037 12.7937 47.4385 12.8111 47.3731 12.8285C49.5914 16.537 50.8679 20.8724 50.8679 25.5014Z" fill="#FFD9F0"/>
<path d="M47.1683 12.4921C47.2338 12.4747 47.2992 12.457 47.3646 12.4396C45.7702 9.85403 43.7174 7.58049 41.3209 5.73392C41.2447 5.75798 41.1688 5.78153 41.0926 5.80508C43.5022 7.64039 45.5662 9.90804 47.1683 12.4921Z" fill="#FFD9F0"/>
<path d="M32.6144 49.3806C32.234 49.5562 31.8496 49.7156 31.4613 49.8592C33.7715 49.3568 36.0254 48.521 38.149 47.3523C38.1748 47.3382 38.2003 47.3238 38.2262 47.3098C38.2637 47.2888 38.3013 47.2678 38.3389 47.2465C38.4089 47.2071 38.4789 47.1674 38.5487 47.1273C38.5495 47.1267 38.5505 47.1262 38.5513 47.1257C39.3845 46.6455 40.1871 46.118 40.9563 45.5476C40.8775 45.5233 40.7988 45.5 40.7203 45.476C38.311 47.2409 35.5717 48.5794 32.6144 49.3806Z" fill="#FFD9F0"/>
<path d="M11.2496 5.80518C11.1731 5.78137 11.0967 5.75757 11.0203 5.73351C8.62374 7.57983 6.57124 9.85285 4.97678 12.4382C5.04247 12.4558 5.10816 12.4735 5.17411 12.4909C6.77623 9.90763 8.84024 7.64024 11.2496 5.80518Z" fill="#FFD9F0"/>
<path d="M19.7984 49.3995C16.8137 48.6006 14.0498 47.2549 11.6211 45.4759C11.5431 45.4995 11.4649 45.523 11.3869 45.5471C12.472 46.3519 13.624 47.0709 14.8338 47.6934C14.8836 47.719 14.9337 47.7444 14.9838 47.7697C15.004 47.7799 15.0245 47.7902 15.0447 47.8004C16.9364 48.748 18.9211 49.4389 20.9483 49.8741C20.5601 49.7312 20.1767 49.5728 19.7984 49.3995Z" fill="#FFD9F0"/>
<path d="M4.31556 37.0144C4.25013 37.029 4.1847 37.0438 4.11926 37.0584C5.80471 40.2719 8.17008 43.074 11.0224 45.2718C11.099 45.2477 11.1757 45.2239 11.2524 45.2001C8.38606 43.0179 6.00843 40.2243 4.31556 37.0144Z" fill="#FFD9F0"/>
<path d="M1.47305 25.5014C1.47305 20.8719 2.75005 16.536 4.96946 12.827C4.90403 12.8096 4.83859 12.7922 4.7729 12.7745C2.55477 16.5014 1.27904 20.854 1.27904 25.5001C1.27904 29.5301 2.23884 33.3395 3.94091 36.7117C4.00634 36.6971 4.07152 36.6825 4.1367 36.6679C2.43386 33.3116 1.47305 29.5168 1.47305 25.5014Z" fill="#FFD9F0"/>
<path d="M32.5178 1.59667C35.5117 2.39454 38.284 3.74248 40.7191 5.52609C40.7968 5.50254 40.8743 5.47924 40.9517 5.45518C39.2279 4.17712 37.3342 3.11612 35.3113 2.31365C35.3011 2.30955 35.2906 2.30546 35.2801 2.30136C35.2226 2.27858 35.1646 2.25631 35.1068 2.23378C33.8802 1.76126 32.6247 1.38959 31.3525 1.11877C31.7456 1.26237 32.1344 1.42184 32.5178 1.59667Z" fill="#FFD9F0"/>
<path d="M23.6887 0.790165C23.3038 0.856716 22.9224 0.938374 22.5449 1.03487C22.8409 0.991106 23.1384 0.952453 23.4375 0.919433C23.521 0.874126 23.6046 0.831121 23.6887 0.790165Z" fill="#FFD9F0"/>
<path d="M25.7526 50.2304C25.8968 50.3609 26.0167 50.4109 26.1041 50.4267C26.1263 50.4267 26.1483 50.4272 26.1706 50.4272C26.1925 50.4272 26.2143 50.4267 26.2362 50.4267C26.3237 50.4111 26.4433 50.3609 26.5869 50.2304C26.4484 50.2327 26.3096 50.2342 26.1706 50.2342C26.031 50.2342 25.8917 50.2327 25.7526 50.2304Z" fill="#FFD9F0"/>
<path d="M25.3668 50.3667C25.3264 50.3212 25.2857 50.2713 25.2448 50.217C25.0352 50.2093 24.8264 50.1988 24.6183 50.1858C24.8653 50.2649 25.115 50.3255 25.3668 50.3667Z" fill="#FFD9F0"/>
<path d="M25.3763 0.637118C25.1248 0.677816 24.8753 0.737972 24.6286 0.816299C24.8367 0.8035 25.0453 0.793262 25.2543 0.785583C25.2945 0.732851 25.3351 0.68319 25.3763 0.637118Z" fill="#FFD9F0"/>
<path d="M26.9716 50.3673C27.2243 50.3258 27.4748 50.2654 27.7228 50.1858C27.5139 50.1989 27.3044 50.2094 27.094 50.2171C27.0539 50.2706 27.013 50.3205 26.9716 50.3673Z" fill="#FFD9F0"/>
<path d="M27.713 0.816397C27.4676 0.738328 27.2197 0.678686 26.9694 0.637983C27.0096 0.683037 27.05 0.732183 27.0909 0.785681C27.2989 0.79336 27.5062 0.803598 27.713 0.816397Z" fill="#FFD9F0"/>
<path d="M28.6193 50.2226C29.0346 50.1527 29.4467 50.0646 29.8554 49.9594C29.5351 50.0076 29.213 50.0493 28.8892 50.0851C28.7995 50.1332 28.7095 50.1791 28.6193 50.2226Z" fill="#FFD9F0"/>
<path d="M26.5851 0.772333C26.4374 0.639485 26.3152 0.591359 26.2278 0.577536C26.2086 0.577536 26.1897 0.577026 26.1705 0.577026C26.1514 0.577026 26.1324 0.577536 26.1135 0.577536C26.0261 0.591105 25.9042 0.639227 25.7567 0.772333C25.8945 0.770029 26.0322 0.768494 26.1705 0.768494C26.3091 0.768494 26.4471 0.770029 26.5851 0.772333Z" fill="#FFD9F0"/>
<path d="M22.5321 49.9661C22.917 50.0649 23.3063 50.1481 23.6991 50.2157C23.613 50.174 23.5271 50.13 23.4412 50.0839C23.1366 50.0501 22.8334 50.0109 22.5321 49.9661Z" fill="#FFD9F0"/>
<path d="M29.7711 1.03108C29.403 0.937392 29.0316 0.857531 28.6569 0.792257C28.7395 0.832702 28.8218 0.874937 28.9038 0.919475C29.1945 0.951471 29.4835 0.988843 29.7711 1.03108Z" fill="#FFD9F0"/>
<path d="M25.3181 0.210304C22.842 0.292983 20.4549 0.734022 18.2071 1.48325H18.2076C20.4552 0.734022 22.842 0.292983 25.3181 0.210304Z" fill="#FFD9F0"/>
<path d="M17.8515 1.60473L17.8521 1.60447C17.8198 1.61573 17.7879 1.627 17.7559 1.63826C17.7879 1.627 17.8196 1.61599 17.8515 1.60473Z" fill="#FFD9F0"/>
<path d="M41.7513 45.4083L41.7718 45.415L41.483 45.6343C37.2558 48.8782 32.1102 50.6839 26.7967 50.7985C26.5886 50.807 26.3798 50.8116 26.1705 50.8116C25.9675 50.8116 25.7656 50.807 25.5642 50.7991C20.244 50.6885 15.0913 48.8821 10.8595 45.6343L10.5707 45.415L10.59 45.4087C4.69552 40.7723 0.902349 33.5718 0.902349 25.5C0.902349 17.4313 4.69271 10.2329 10.5839 5.59623L10.5707 5.59221L10.8595 5.3713C12.9943 3.7423 15.3239 2.49833 17.7559 1.63826C17.7879 1.627 17.8198 1.61573 17.8521 1.60447C17.8991 1.58783 17.9464 1.57166 17.9937 1.55554C18.0535 1.53506 18.1131 1.51484 18.1729 1.49462C18.1844 1.49078 18.1959 1.48709 18.2071 1.48325C20.4549 0.734022 22.842 0.292983 25.3181 0.210304C25.3643 0.208512 25.4106 0.207133 25.4566 0.205851C25.5017 0.204572 25.5469 0.203544 25.5918 0.202522C25.634 0.201499 25.6761 0.20068 25.7183 0.199914C25.8686 0.195305 26.0194 0.192746 26.1705 0.192746C26.3213 0.192746 26.4718 0.195305 26.6219 0.199914C26.6664 0.20068 26.7108 0.201706 26.7553 0.202734C26.7965 0.203499 26.8379 0.204519 26.879 0.2058C26.9324 0.207335 26.9856 0.208872 27.039 0.210923C27.0863 0.212458 27.1339 0.21399 27.1811 0.215783C27.1914 0.216294 27.2013 0.216808 27.2116 0.217066C27.3639 0.223463 27.5157 0.231143 27.6673 0.240102C27.6762 0.240614 27.6849 0.240869 27.6936 0.241381C29.8075 0.368089 31.8521 0.755884 33.7957 1.37329C33.8455 1.38916 33.8954 1.40503 33.9452 1.42115C33.9692 1.42883 33.993 1.43677 34.017 1.4447C34.1001 1.47184 34.1829 1.49922 34.2655 1.52738L34.2662 1.52764C36.8141 2.39001 39.2544 3.67089 41.483 5.3713L41.7718 5.59221L41.7572 5.59682C47.6481 10.2335 51.4385 17.4319 51.4385 25.5001C51.4385 33.5709 47.6458 40.7719 41.7513 45.4083ZM26.1705 0C12.1375 0 0.70718 11.4386 0.70718 25.5001C0.70718 39.5614 12.1375 51 26.1705 51C40.2116 51 51.6338 39.553 51.6338 25.5001C51.6338 11.447 40.2034 0 26.1705 0Z" fill="#FFD9F0"/>
<path d="M11.38 45.5491C12.4847 46.3667 13.6404 47.0814 14.8338 47.6934C13.624 47.0709 12.472 46.3519 11.3869 45.5471C11.3847 45.5479 11.3823 45.5483 11.38 45.5491Z" fill="#FFD9F0"/>
<path d="M11.0224 45.2718C8.17008 43.074 5.80471 40.2719 4.11926 37.0584C4.00833 37.0832 3.89737 37.1077 3.78643 37.1328L3.70157 36.7653C3.78132 36.7471 3.8609 36.7296 3.94091 36.7117C2.23884 33.3395 1.27904 29.5301 1.27904 25.5001C1.27904 20.854 2.55451 16.5017 4.7729 12.7745C4.7067 12.7568 4.64092 12.7393 4.57472 12.7213L4.67262 12.3566C4.77383 12.3842 4.87556 12.411 4.97678 12.4382C6.57124 9.85285 8.62374 7.57983 11.0203 5.73351C10.9858 5.7225 10.951 5.71209 10.9165 5.70108L10.5839 5.59623C4.69271 10.2329 0.902349 17.4313 0.902349 25.5C0.902349 33.5718 4.69552 40.7723 10.59 45.4087L10.9165 45.3045C10.9518 45.2935 10.9871 45.2828 11.0224 45.2718Z" fill="#FFD9F0"/>
<path d="M11.38 5.45237C11.3831 5.45339 11.386 5.45417 11.3891 5.45519C13.1068 4.18173 14.9929 3.1238 17.0075 2.32235C15.0371 3.10383 13.1439 4.14717 11.38 5.45237Z" fill="#FFD9F0"/>
<path d="M40.961 5.45237C39.1904 4.14205 37.2897 3.09615 35.3113 2.31365C37.3342 3.11612 39.2279 4.17712 40.9517 5.45518C40.9548 5.45416 40.9579 5.45339 40.961 5.45237Z" fill="#FFD9F0"/>
<path d="M40.961 45.5491C40.9594 45.5486 40.9581 45.5482 40.9563 45.5476C40.1874 46.1182 39.3843 46.6453 38.5513 47.1257C39.3766 46.6512 40.1816 46.1258 40.961 45.5491Z" fill="#FFD9F0"/>
<path d="M18.2076 1.48325C20.517 0.715594 22.9131 0.291448 25.3181 0.210304C22.842 0.292983 20.4552 0.734022 18.2076 1.48325Z" fill="#FFD9F0"/>
<path d="M41.3209 5.73392C43.7174 7.58049 45.7702 9.85403 47.3646 12.4396C47.4625 12.4132 47.5609 12.3874 47.6588 12.3608L47.7577 12.7255C47.6948 12.7427 47.6317 12.7594 47.5688 12.7763C49.7875 16.504 51.0632 20.8573 51.0632 25.5042C51.0632 29.5332 50.1039 33.3413 48.4026 36.7122C48.4816 36.7298 48.5606 36.7474 48.6395 36.7653L48.5559 37.1329C48.4455 37.1078 48.3351 37.0834 48.2247 37.0586C46.5392 40.2723 44.1738 43.0744 41.321 45.2722C41.3561 45.2832 41.3908 45.2935 41.4256 45.3046L41.7513 45.4083C47.6461 40.7716 51.4385 33.5712 51.4385 25.5001C51.4385 17.4322 47.6484 10.2337 41.7572 5.59682L41.4256 5.70117C41.3908 5.71217 41.3559 5.72291 41.3209 5.73392Z" fill="#FFD9F0"/>
<path d="M27.2121 0.217169C27.3639 0.223313 27.5155 0.231143 27.6673 0.240102C27.516 0.231143 27.3642 0.223313 27.2121 0.217169Z" fill="#FFD9F0"/>
<path d="M33.7951 1.37318L33.7957 1.37329C31.8521 0.755884 29.8072 0.367831 27.6936 0.241381C29.8072 0.367831 31.8517 0.755781 33.7951 1.37318Z" fill="#FFD9F0"/>
<path d="M38.5487 47.1273C38.4789 47.1674 38.4092 47.2069 38.3389 47.2465C38.4089 47.2071 38.4789 47.1674 38.5487 47.1273Z" fill="#FFD9F0"/>
<path d="M27.6936 0.241381C29.7558 0.365781 31.806 0.74324 33.7951 1.37318C31.8517 0.755781 29.8072 0.367831 27.6936 0.241381Z" fill="#FFD9F0"/>
<path d="M27.6673 0.240102C27.5157 0.231143 27.3639 0.223463 27.2116 0.217066L27.2121 0.217169C27.3642 0.223313 27.516 0.231143 27.6673 0.240102Z" fill="#FFD9F0"/>
<path d="M9.17195 13.4461C7.83233 13.1614 6.49941 12.8429 5.17411 12.4909C5.10509 12.6022 5.03668 12.7144 4.96946 12.827C6.31445 13.1858 7.66747 13.5108 9.02703 13.8009C9.07457 13.6821 9.12288 13.5638 9.17195 13.4461Z" fill="#FFD9F0"/>
<path d="M20.7134 15.0514C20.5084 15.1679 20.2898 15.231 20.0631 15.231C19.7722 15.231 19.4947 15.1269 19.2417 14.9391C18.2453 14.8541 17.2507 14.7508 16.2584 14.6297C16.2321 14.7526 16.206 14.8762 16.1804 15.0001C18.2531 15.2543 20.3353 15.4296 22.4231 15.5253C22.4315 15.3994 22.4402 15.274 22.4489 15.1488C21.8699 15.1224 21.2914 15.0901 20.7134 15.0514Z" fill="#FFD9F0"/>
<path d="M36.4623 14.5832C36.4886 14.7063 36.5147 14.8297 36.54 14.9536C38.6871 14.6805 40.8229 14.3226 42.9431 13.8806C42.8953 13.7616 42.8468 13.643 42.7977 13.525C40.6997 13.9607 38.5864 14.3137 36.4623 14.5832Z" fill="#FFD9F0"/>
<path d="M9.55293 13.5259C9.5036 13.6436 9.45477 13.7621 9.40698 13.8811C11.5254 14.3227 13.66 14.6803 15.8053 14.9534C15.8308 14.8295 15.8566 14.7062 15.8832 14.583C13.7607 14.3137 11.6491 13.961 9.55293 13.5259Z" fill="#FFD9F0"/>
<path d="M26.1705 15.2352C25.0517 15.235 23.9337 15.2114 22.8172 15.1654C22.8088 15.2905 22.8004 15.4159 22.7919 15.5419C23.9168 15.5885 25.0433 15.612 26.1705 15.6125C27.2995 15.6123 28.428 15.5887 29.5547 15.5419C29.5463 15.4159 29.5378 15.2905 29.5291 15.1654C28.4106 15.2117 27.2911 15.235 26.1705 15.2352Z" fill="#FFD9F0"/>
<path d="M43.3234 13.8004C44.6804 13.5109 46.0306 13.1869 47.3731 12.8285C47.3056 12.7159 47.2373 12.6037 47.1683 12.4921C45.8458 12.8433 44.5155 13.161 43.179 13.4451C43.2278 13.5629 43.2758 13.6814 43.3234 13.8004Z" fill="#FFD9F0"/>
<path d="M33.162 14.9342C32.9072 15.1254 32.6273 15.231 32.3336 15.231C32.1048 15.231 31.8848 15.1669 31.678 15.0483C31.0873 15.0883 30.496 15.1214 29.9043 15.1486C29.9133 15.2735 29.9217 15.3989 29.9301 15.5249C32.0151 15.4291 34.0944 15.2543 36.1641 15.0006C36.1385 14.8765 36.1124 14.7529 36.0858 14.6297C35.1133 14.7488 34.1384 14.8502 33.162 14.9342Z" fill="#FFD9F0"/>
<path d="M20.0631 15.231C20.2898 15.231 20.5084 15.1679 20.7134 15.0514C20.2224 15.0187 19.7319 14.9808 19.2417 14.9391C19.4947 15.1269 19.7722 15.231 20.0631 15.231Z" fill="#FFD9F0"/>
<path d="M32.3336 15.231C32.6273 15.231 32.9072 15.1254 33.162 14.9342C32.6677 14.9767 32.1731 15.0148 31.678 15.0483C31.8848 15.1669 32.1048 15.231 32.3336 15.231Z" fill="#FFD9F0"/>
<path d="M5.17411 12.4909C5.10816 12.4735 5.04247 12.4558 4.97678 12.4382C4.90802 12.5495 4.83987 12.6619 4.7729 12.7745C4.83859 12.7922 4.90403 12.8096 4.96946 12.827C5.03668 12.7144 5.10509 12.6022 5.17411 12.4909Z" fill="#FFD9F0"/>
<path d="M47.3731 12.8285C47.4382 12.8111 47.5034 12.794 47.5688 12.7763C47.5016 12.6637 47.4334 12.5512 47.3646 12.4396C47.2992 12.457 47.2338 12.4747 47.1683 12.4921C47.2373 12.6037 47.3056 12.7159 47.3731 12.8285Z" fill="#FFD9F0"/>
<path d="M4.67262 12.3566L4.57472 12.7213C4.64092 12.7393 4.7067 12.7568 4.7729 12.7745C4.83987 12.6619 4.90802 12.5495 4.97678 12.4382C4.87556 12.411 4.77383 12.3842 4.67262 12.3566Z" fill="#FFD9F0"/>
<path d="M47.7577 12.7255L47.6588 12.3608C47.5609 12.3874 47.4625 12.4132 47.3646 12.4396C47.4334 12.5512 47.5016 12.6637 47.5688 12.7763C47.6317 12.7594 47.6948 12.7427 47.7577 12.7255Z" fill="#FFD9F0"/>
<path d="M28.7125 7.62375C27.8664 7.6665 27.0188 7.68851 26.1705 7.68825C25.3227 7.68851 24.4756 7.66675 23.63 7.62375C23.6224 7.67187 23.6147 7.72051 23.6073 7.76914C23.5958 7.84337 23.5845 7.91837 23.573 7.99311C24.4375 8.03714 25.3035 8.05941 26.1705 8.05839C27.038 8.05941 27.9045 8.03714 28.7692 7.99311C28.758 7.91811 28.7465 7.84337 28.7352 7.76914C28.7276 7.72051 28.7201 7.67187 28.7125 7.62375Z" fill="#FFD9F0"/>
<path d="M18.185 7.42666C18.2395 7.30764 18.2944 7.1904 18.3499 7.07419C16.9449 6.85175 15.5493 6.56942 14.1669 6.22769C14.0708 6.33162 13.9752 6.43657 13.8804 6.54305C15.3026 6.90039 16.7388 7.19526 18.185 7.42666Z" fill="#FFD9F0"/>
<path d="M29.145 7.97292C30.0268 7.92147 30.9071 7.84634 31.7841 7.74856C31.9597 7.66562 32.1437 7.62122 32.3337 7.62122C32.4241 7.62122 32.5138 7.63132 32.6012 7.65078C32.9949 7.60035 33.3872 7.54545 33.7793 7.48581C33.7244 7.36678 33.6689 7.24904 33.6127 7.13283C32.1133 7.35834 30.6035 7.51525 29.0882 7.60356C29.0944 7.64195 29.1003 7.68035 29.1064 7.719C29.1192 7.80322 29.1322 7.88794 29.145 7.97292Z" fill="#FFD9F0"/>
<path d="M38.8818 6.43543C39.6228 6.24243 40.3601 6.03212 41.0926 5.80508C40.9692 5.71088 40.8444 5.61798 40.7191 5.52609C40.0167 5.73982 39.3102 5.93782 38.6001 6.12008C38.6947 6.224 38.7885 6.3292 38.8818 6.43543Z" fill="#FFD9F0"/>
<path d="M34.1559 7.4268C35.6039 7.19515 37.042 6.90001 38.4657 6.54191C38.3709 6.43568 38.275 6.33048 38.1784 6.22655C36.7945 6.56879 35.3974 6.85138 33.9911 7.07407C34.0463 7.19029 34.1015 7.30778 34.1559 7.4268Z" fill="#FFD9F0"/>
<path d="M23.2636 7.60414C21.745 7.51609 20.2321 7.35892 18.7297 7.1329C18.6734 7.24937 18.618 7.36711 18.563 7.48588C18.9666 7.54731 19.3707 7.60368 19.7759 7.65539C19.8697 7.63287 19.9658 7.62129 20.0632 7.62129C20.2595 7.62129 20.4494 7.66845 20.6299 7.75676C21.4866 7.85096 22.346 7.92359 23.2071 7.97351C23.2199 7.88827 23.2326 7.80328 23.2457 7.71907C23.2516 7.68093 23.2577 7.64253 23.2636 7.60414Z" fill="#FFD9F0"/>
<path d="M13.7475 6.12185C13.0354 5.93909 12.3266 5.74059 11.6225 5.52635C11.4972 5.61824 11.3733 5.71098 11.2496 5.80518C11.9842 6.03273 12.7233 6.24344 13.4663 6.43696C13.5594 6.33073 13.6529 6.22578 13.7475 6.12185Z" fill="#FFD9F0"/>
<path d="M19.7759 7.65539C20.0601 7.69149 20.3449 7.72553 20.6299 7.75676C20.4491 7.6687 20.2595 7.62129 20.0632 7.62129C19.9658 7.62129 19.8697 7.63287 19.7759 7.65539Z" fill="#FFD9F0"/>
<path d="M31.7841 7.74856C32.0568 7.71809 32.329 7.68559 32.6012 7.65078C32.5138 7.63132 32.4241 7.62122 32.3337 7.62122C32.1437 7.62122 31.9597 7.66562 31.7841 7.74856Z" fill="#FFD9F0"/>
<path d="M35.1068 2.23378C33.893 1.76459 32.6332 1.38834 31.3368 1.11317C31.3419 1.11522 31.3474 1.11698 31.3525 1.11877C32.6247 1.38959 33.8802 1.76126 35.1068 2.23378Z" fill="#FFD9F0"/>
<path d="M26.7553 0.202734C26.7108 0.201706 26.6664 0.20068 26.6219 0.199914C26.6265 0.200172 26.631 0.200316 26.6356 0.200316C26.6755 0.201086 26.7154 0.20171 26.7553 0.202734Z" fill="#FFD9F0"/>
<path d="M10.8595 5.3713L10.5707 5.59221L10.5839 5.59623C12.7243 3.91168 15.1421 2.56539 17.7559 1.63826C15.3239 2.49833 12.9943 3.7423 10.8595 5.3713Z" fill="#FFD9F0"/>
<path d="M20.9853 1.11721C19.6707 1.39725 18.3942 1.78148 17.1647 2.26066C18.4072 1.77764 19.6796 1.39855 20.9694 1.12287C20.9748 1.12083 20.9799 1.11926 20.9853 1.11721Z" fill="#FFD9F0"/>
<path d="M11.6225 5.52635C11.5448 5.50254 11.4668 5.47925 11.3891 5.45519C11.2651 5.54708 11.1422 5.63956 11.0203 5.73351C11.0967 5.75757 11.1731 5.78137 11.2496 5.80518C11.3733 5.71098 11.4972 5.61824 11.6225 5.52635Z" fill="#FFD9F0"/>
<path d="M17.994 1.55536C17.9467 1.57174 17.8993 1.58783 17.8521 1.60447L17.8515 1.60473C17.8988 1.58809 17.9465 1.57174 17.994 1.55536Z" fill="#FFD9F0"/>
<path d="M41.0926 5.80508C41.1688 5.78153 41.2447 5.75798 41.3209 5.73392C41.1987 5.63972 41.0757 5.54708 40.9517 5.45518C40.8745 5.47899 40.7966 5.50254 40.7191 5.52609C40.8444 5.61798 40.9692 5.71088 41.0926 5.80508Z" fill="#FFD9F0"/>
<path d="M41.7718 5.59221L41.483 5.3713C39.2546 3.67114 36.8141 2.39001 34.2662 1.52764C37.0027 2.45682 39.5302 3.84367 41.7572 5.59682L41.7718 5.59221Z" fill="#FFD9F0"/>
<path d="M25.7183 0.199914C25.6761 0.20068 25.634 0.201499 25.5918 0.202522C25.6294 0.201757 25.6669 0.201148 25.7045 0.200378C25.7091 0.200124 25.7137 0.200172 25.7183 0.199914Z" fill="#FFD9F0"/>
<path d="M34.2662 1.52764C34.1837 1.49948 34.0998 1.47184 34.017 1.4447L34.0167 1.44449C34.1 1.47188 34.1834 1.49948 34.2662 1.52764Z" fill="#FFD9F0"/>
<path d="M11.0203 5.73351C11.1422 5.63956 11.2651 5.54708 11.3891 5.45519C11.386 5.45417 11.3831 5.45339 11.38 5.45237C13.1439 4.14717 15.0371 3.10383 17.0075 2.32235C17.0285 2.31416 17.0492 2.30571 17.0699 2.29752C17.1016 2.28498 17.1333 2.27295 17.1647 2.26066C18.3942 1.78148 19.6707 1.39725 20.9853 1.11721C22.4928 0.567389 24.074 0.251318 25.7045 0.200378C25.6669 0.201148 25.6294 0.201757 25.5918 0.202522C25.5469 0.203544 25.5017 0.204572 25.4566 0.205851C25.4106 0.207133 25.3643 0.208512 25.3181 0.210304C22.9131 0.291448 20.517 0.715594 18.2076 1.48325C18.1961 1.48709 18.1841 1.49078 18.1729 1.49462C18.1133 1.51459 18.0536 1.53488 17.994 1.55536C17.9465 1.57174 17.8988 1.58809 17.8515 1.60473C17.8196 1.61599 17.7879 1.627 17.7559 1.63826C15.1421 2.56539 12.7243 3.91168 10.5839 5.59623L10.9165 5.70108C10.951 5.71209 10.9858 5.7225 11.0203 5.73351Z" fill="#FFD9F0"/>
<path d="M34.2662 1.52764C34.1834 1.49948 34.1 1.47188 34.0167 1.44449C33.9929 1.43681 33.969 1.42883 33.9452 1.42115C33.8951 1.40503 33.8455 1.38906 33.7951 1.37318C31.806 0.74324 29.7558 0.365781 27.6936 0.241381C27.6849 0.240869 27.6762 0.240614 27.6673 0.240102C27.5155 0.230889 27.3637 0.22357 27.2121 0.217169C27.2016 0.216915 27.1916 0.216294 27.1811 0.215783C27.1339 0.21399 27.0863 0.212458 27.039 0.210923C26.9856 0.208872 26.9324 0.207335 26.879 0.2058C26.8379 0.204519 26.7965 0.203499 26.7553 0.202734C26.7154 0.20171 26.6755 0.201086 26.6356 0.200316C28.2531 0.250744 29.8293 0.564878 31.3368 1.11317C32.6332 1.38834 33.893 1.76459 35.1068 2.23378C35.1646 2.25631 35.2226 2.27858 35.2801 2.30136C35.2906 2.30546 35.3011 2.30955 35.3113 2.31365C37.29 3.09589 39.1906 4.14205 40.961 5.45237C40.9579 5.45339 40.9548 5.45416 40.9517 5.45518C41.0757 5.54708 41.1987 5.63972 41.3209 5.73392C41.3559 5.72291 41.3908 5.71217 41.4256 5.70117L41.7572 5.59682C39.5302 3.84367 37.0025 2.45707 34.2662 1.52764Z" fill="#FFD9F0"/>
<path d="M27.2121 0.217169L27.2116 0.217066C27.2013 0.216808 27.1914 0.216294 27.1811 0.215783C27.1914 0.21604 27.2019 0.216657 27.2121 0.217169Z" fill="#FFD9F0"/>
<path d="M33.9452 1.42115C33.8954 1.40503 33.8455 1.38916 33.7957 1.37329L33.7951 1.37318C33.8455 1.38906 33.8951 1.40503 33.9452 1.42115Z" fill="#FFD9F0"/>
<path d="M8.50524 35.7932C7.04446 36.0523 5.58777 36.3441 4.1367 36.6679C4.19549 36.7838 4.25499 36.8995 4.31556 37.0144C5.74899 36.696 7.18785 36.4088 8.63074 36.1539C8.58831 36.0344 8.54639 35.9141 8.50524 35.7932Z" fill="#FFD9F0"/>
<path d="M43.4586 35.7275C43.2662 35.6942 43.0737 35.6612 42.8812 35.629C42.8137 35.7457 42.7452 35.8616 42.6755 35.9771C42.8945 36.0134 43.1133 36.0505 43.3318 36.0882C43.375 35.9684 43.4172 35.8481 43.4586 35.7275Z" fill="#FFD9F0"/>
<path d="M22.3609 34.6889C22.3532 34.5637 22.3458 34.438 22.3386 34.3121C20.2026 34.3932 18.0683 34.5419 15.9393 34.7582C15.9613 34.8829 15.9841 35.007 16.0071 35.1307C18.1209 34.9164 20.2399 34.769 22.3609 34.6889Z" fill="#FFD9F0"/>
<path d="M29.6036 34.675C29.6113 34.5498 29.6187 34.4241 29.6259 34.2982C27.3231 34.2196 25.0181 34.2196 22.7153 34.2982C22.7225 34.4241 22.7299 34.5498 22.7376 34.675C25.0255 34.5971 27.3157 34.5971 29.6036 34.675Z" fill="#FFD9F0"/>
<path d="M9.43541 35.633C9.2524 35.6637 9.06964 35.6949 8.88688 35.7267C8.92829 35.8475 8.97047 35.9681 9.01341 36.0879C9.22173 36.0518 9.4303 36.0164 9.63887 35.9816C9.56986 35.8662 9.50212 35.75 9.43541 35.633Z" fill="#FFD9F0"/>
<path d="M43.7152 36.1546C45.1566 36.4093 46.5936 36.6964 48.0258 37.0143C48.0861 36.8994 48.1457 36.7839 48.2045 36.6679C46.755 36.3446 45.3005 36.053 43.8412 35.7942C43.8001 35.9148 43.7579 36.0348 43.7152 36.1546Z" fill="#FFD9F0"/>
<path d="M36.3345 35.1305C36.3575 35.0069 36.38 34.883 36.4023 34.7583C34.2695 34.5415 32.1319 34.3928 29.9922 34.3119C29.9848 34.4378 29.9774 34.5632 29.9697 34.6884C32.0943 34.7685 34.2169 34.916 36.3345 35.1305Z" fill="#FFD9F0"/>
<path d="M15.6299 35.1689C15.6069 35.0453 15.5842 34.9214 15.5622 34.7967C13.6904 34.9941 11.8224 35.2437 9.96112 35.546C10.034 35.6622 10.1081 35.7779 10.1835 35.8926C11.9937 35.6018 13.8098 35.3604 15.6299 35.1689Z" fill="#FFD9F0"/>
<path d="M42.2973 35.9145C42.3714 35.7998 42.444 35.6844 42.5159 35.5684C40.6068 35.2559 38.691 34.9981 36.7709 34.7959C36.7489 34.9203 36.7264 35.0444 36.7034 35.1681C38.5729 35.3644 40.4383 35.6132 42.2973 35.9145Z" fill="#FFD9F0"/>
<path d="M48.0258 37.0143C48.0923 37.0289 48.1585 37.0437 48.2247 37.0586C48.285 36.9436 48.3441 36.8281 48.4026 36.7122C48.3367 36.6973 48.2707 36.6828 48.2045 36.6679C48.1457 36.7839 48.0861 36.8994 48.0258 37.0143Z" fill="#FFD9F0"/>
<path d="M4.1367 36.6679C4.07152 36.6825 4.00634 36.6971 3.94091 36.7117C3.9997 36.8279 4.05894 36.9432 4.11926 37.0584C4.1847 37.0438 4.25013 37.029 4.31556 37.0144C4.25499 36.8995 4.19549 36.7838 4.1367 36.6679Z" fill="#FFD9F0"/>
<path d="M3.70157 36.7653L3.78643 37.1328C3.89711 37.1075 4.00858 37.0832 4.11926 37.0584C4.05894 36.9432 3.9997 36.8279 3.94091 36.7117C3.86116 36.7298 3.78132 36.7471 3.70157 36.7653Z" fill="#FFD9F0"/>
<path d="M48.5559 37.1329L48.6395 36.7653C48.5606 36.7474 48.4816 36.7298 48.4026 36.7122C48.3441 36.8281 48.285 36.9436 48.2247 37.0586C48.3351 37.0834 48.4455 37.1078 48.5559 37.1329Z" fill="#FFD9F0"/>
<path d="M23.6306 43.3853C25.3229 43.2996 27.0186 43.2996 28.7109 43.3853C28.7191 43.3341 28.727 43.2827 28.735 43.231C28.746 43.1598 28.757 43.0876 28.7677 43.0159C27.0375 42.9271 25.304 42.9271 23.5741 43.0159C23.5851 43.0892 23.596 43.1626 23.6073 43.2351C23.615 43.2855 23.6229 43.3357 23.6306 43.3853Z" fill="#FFD9F0"/>
<path d="M13.4692 44.5707C12.7266 44.7634 11.9875 44.9731 11.2524 45.2001C11.3746 45.293 11.4971 45.3851 11.6211 45.4759C12.3265 45.2622 13.0354 45.0644 13.7473 44.8824C13.6537 44.7798 13.5612 44.6756 13.4692 44.5707Z" fill="#FFD9F0"/>
<path d="M18.2982 43.8256C18.1615 43.7627 18.0255 43.6979 17.8903 43.6316C16.5468 43.8548 15.2103 44.1325 13.8837 44.4648C13.9775 44.57 14.0721 44.6742 14.1672 44.7771C15.5518 44.4361 16.9471 44.1551 18.3496 43.9339C18.3325 43.8978 18.3154 43.862 18.2982 43.8256Z" fill="#FFD9F0"/>
<path d="M29.0779 43.4051C30.1793 43.4691 31.2792 43.5694 32.3755 43.7059C32.5337 43.6544 32.6916 43.6009 32.8486 43.5454C32.9503 43.509 33.0515 43.4717 33.1525 43.4335C31.8175 43.2474 30.4771 43.1146 29.1344 43.0357C29.1214 43.122 29.1083 43.2085 29.095 43.2938C29.0894 43.3306 29.0838 43.368 29.0779 43.4051Z" fill="#FFD9F0"/>
<path d="M20.2979 43.6657C21.2805 43.55 22.2656 43.4632 23.2522 43.4059C23.2463 43.3685 23.2404 43.3314 23.2346 43.2938C23.2215 43.2088 23.2085 43.1225 23.1954 43.0365C21.965 43.1092 20.7363 43.2267 19.5119 43.3895C19.5521 43.4049 19.5919 43.4205 19.6318 43.4363C19.8503 43.5239 20.0748 43.5933 20.2979 43.6657Z" fill="#FFD9F0"/>
<path d="M38.6069 44.8859C39.3144 45.0668 40.0192 45.2635 40.7203 45.476C40.8443 45.3851 40.967 45.2932 41.0895 45.2C40.3582 44.9742 39.6232 44.7656 38.8847 44.5736C38.793 44.6788 38.7002 44.783 38.6069 44.8859Z" fill="#FFD9F0"/>
<path d="M34.2331 43.5959C34.1937 43.6148 34.1546 43.634 34.115 43.6527C34.0715 43.7469 34.0278 43.8403 33.9838 43.9328C35.3922 44.1547 36.7934 44.4368 38.1837 44.7795C38.279 44.6766 38.3736 44.5724 38.4671 44.467C37.0659 44.1158 35.6532 43.8252 34.2331 43.5959Z" fill="#FFD9F0"/>
<path d="M31.4182 49.8753C33.8063 49.3602 36.0678 48.5011 38.149 47.3523C36.0254 48.521 33.7715 49.3568 31.4613 49.8592C31.447 49.8644 31.4325 49.8699 31.4182 49.8753Z" fill="#FFD9F0"/>
<path d="M40.7203 45.476C40.7991 45.4998 40.8778 45.5233 40.9563 45.5476C41.0787 45.4568 41.2004 45.3651 41.321 45.2722C41.2438 45.2479 41.1667 45.2238 41.0895 45.2C40.967 45.2932 40.8443 45.3851 40.7203 45.476Z" fill="#FFD9F0"/>
<path d="M10.59 45.4087L10.5707 45.415L10.8595 45.6343C15.0916 48.8823 20.2438 50.6885 25.5642 50.7991C25.5269 50.7975 25.4894 50.7959 25.4523 50.7941C19.8566 50.6369 14.7098 48.6493 10.59 45.4087Z" fill="#FFD9F0"/>
<path d="M26.7967 50.7985C32.1102 50.6839 37.2558 48.8782 41.483 45.6343L41.7718 45.415L41.7513 45.4083C37.6364 48.6451 32.4971 50.6321 26.9085 50.7934C26.8715 50.7952 26.834 50.797 26.7967 50.7985Z" fill="#FFD9F0"/>
<path d="M15.0447 47.8004C16.9062 48.736 18.9004 49.4445 20.9907 49.8894C20.9767 49.8843 20.9627 49.8792 20.9483 49.8741C18.9211 49.4389 16.9364 48.748 15.0447 47.8004Z" fill="#FFD9F0"/>
<path d="M11.2524 45.2001C11.1757 45.2239 11.099 45.2477 11.0224 45.2718C11.143 45.3647 11.2645 45.4562 11.3869 45.5471C11.4649 45.523 11.5431 45.4995 11.6211 45.4759C11.4971 45.3851 11.3746 45.293 11.2524 45.2001Z" fill="#FFD9F0"/>
<path d="M15.0447 47.8004C15.0245 47.7902 15.004 47.7799 14.9838 47.7697C14.9337 47.7444 14.8836 47.719 14.8338 47.6934C13.6404 47.0814 12.4847 46.3667 11.38 45.5491C11.3823 45.5483 11.3847 45.5479 11.3869 45.5471C11.2645 45.4562 11.143 45.3647 11.0224 45.2718C10.9871 45.2828 10.9518 45.2935 10.9165 45.3045L10.59 45.4087C14.7098 48.6493 19.8566 50.6369 25.4523 50.7941C23.9128 50.7201 22.4188 50.4095 20.9907 49.8894C18.9004 49.4445 16.9062 48.736 15.0447 47.8004Z" fill="#FFD9F0"/>
<path d="M41.321 45.2722C41.2004 45.3651 41.0787 45.4568 40.9563 45.5476C40.9578 45.5479 40.9594 45.5486 40.961 45.5491C40.1816 46.1258 39.3766 46.6512 38.5513 47.1257C38.5505 47.1262 38.5495 47.1267 38.5487 47.1273C38.4789 47.1674 38.4089 47.2071 38.3389 47.2465C38.3013 47.2678 38.2637 47.2888 38.2262 47.3098C38.2006 47.3241 38.1745 47.3382 38.149 47.3523C36.0678 48.5011 33.8063 49.3602 31.4182 49.8753C29.961 50.4095 28.4503 50.7187 26.9085 50.7934C32.4971 50.6321 37.6364 48.6451 41.7513 45.4083L41.4256 45.3046C41.3908 45.2935 41.3561 45.2832 41.321 45.2722Z" fill="#FFD9F0"/>
<path d="M28.7692 7.99311C29.0898 10.1143 29.3454 12.5386 29.5291 15.1654C29.6544 15.1602 29.7791 15.1542 29.9043 15.1486C29.7203 12.5221 29.4647 10.0965 29.145 7.97292C29.0197 7.98009 28.8945 7.98671 28.7692 7.99311Z" fill="#FFD9F0"/>
<path d="M23.63 7.62375C24.392 2.78051 25.2342 1.24383 25.7567 0.772333C25.5888 0.775149 25.4215 0.77944 25.2543 0.785583C24.3183 2.01655 23.6708 4.98504 23.2636 7.60414C23.3855 7.61131 23.5079 7.61761 23.63 7.62375Z" fill="#FFD9F0"/>
<path d="M23.2071 7.97351C22.8878 10.0978 22.6329 12.5228 22.4489 15.1488C22.5718 15.1544 22.6943 15.1602 22.8172 15.1654C22.9977 12.5375 23.2528 10.1136 23.573 7.99311C23.4511 7.98697 23.329 7.98067 23.2071 7.97351Z" fill="#FFD9F0"/>
<path d="M29.8389 22.2346L30.2129 22.0948C30.1653 19.8159 30.07 17.6095 29.9301 15.5249C29.8051 15.5305 29.68 15.5368 29.5547 15.5419C29.6968 17.6634 29.7926 19.9114 29.8389 22.2346Z" fill="#FFD9F0"/>
<path d="M22.2119 19.6145L22.6024 19.2679C22.6497 17.9909 22.7129 16.7457 22.7919 15.5419C22.669 15.5368 22.546 15.531 22.4231 15.5253C22.3349 16.8438 22.264 18.211 22.2119 19.6145Z" fill="#FFD9F0"/>
<path d="M28.7125 7.62375C28.8377 7.61735 28.963 7.61073 29.0882 7.60356C28.4554 3.56458 27.7365 1.63192 27.0909 0.785681C26.9229 0.779284 26.7541 0.775149 26.5851 0.772333C27.1088 1.24358 27.9536 2.78051 28.7125 7.62375Z" fill="#FFD9F0"/>
<path d="M26.5851 0.772333C26.7541 0.775149 26.9227 0.779537 27.0909 0.785681C27.05 0.732183 27.0096 0.683037 26.9694 0.637983C26.7898 0.608799 26.6086 0.589065 26.4266 0.579593C26.3604 0.578569 26.2942 0.577794 26.2278 0.577536C26.3152 0.591359 26.4374 0.639485 26.5851 0.772333Z" fill="#FFD9F0"/>
<path d="M25.2543 0.785583C25.4215 0.77944 25.589 0.774892 25.7567 0.772333C25.9042 0.639227 26.0261 0.591105 26.1135 0.577536C26.0476 0.57779 25.9816 0.578394 25.9159 0.579675C25.7349 0.588889 25.5549 0.608195 25.3763 0.637118C25.3351 0.68319 25.2945 0.732851 25.2543 0.785583Z" fill="#FFD9F0"/>
<path d="M22.4489 15.1488C22.4402 15.274 22.4315 15.3994 22.4231 15.5253C22.546 15.531 22.669 15.5368 22.7919 15.5419C22.8001 15.416 22.8085 15.2903 22.8172 15.1654C22.6943 15.1602 22.5718 15.1544 22.4489 15.1488Z" fill="#FFD9F0"/>
<path d="M29.5291 15.1654C29.5378 15.2905 29.5463 15.4159 29.5547 15.5419C29.68 15.5368 29.8051 15.5305 29.9301 15.5249C29.9217 15.3989 29.913 15.2738 29.9043 15.1486C29.7791 15.1542 29.6544 15.1602 29.5291 15.1654Z" fill="#FFD9F0"/>
<path d="M23.63 7.62375C23.5079 7.61761 23.3855 7.61131 23.2636 7.60414C23.2577 7.64253 23.2516 7.68093 23.2457 7.71907C23.2326 7.80328 23.2199 7.88827 23.2071 7.97351C23.329 7.98067 23.4511 7.98697 23.573 7.99311C23.5843 7.91811 23.5958 7.84337 23.6073 7.76914C23.615 7.72025 23.6224 7.67187 23.63 7.62375Z" fill="#FFD9F0"/>
<path d="M28.7352 7.76914C28.7465 7.84337 28.758 7.91811 28.7692 7.99311C28.8945 7.98671 29.0197 7.98009 29.145 7.97292C29.1319 7.88768 29.1194 7.80296 29.1064 7.719C29.1005 7.68009 29.0941 7.64195 29.0882 7.60356C28.963 7.61073 28.8377 7.61735 28.7125 7.62375C28.7201 7.67187 28.7278 7.72025 28.7352 7.76914Z" fill="#FFD9F0"/>
<path d="M23.5388 44.4409L23.8121 44.4744C23.7512 44.1312 23.6906 43.7688 23.6306 43.3853C23.5043 43.3917 23.3785 43.3985 23.2522 43.4059C23.3079 43.7612 23.3643 44.1 23.4212 44.4235C23.4604 44.4296 23.4995 44.4358 23.5388 44.4409Z" fill="#FFD9F0"/>
<path d="M29.1344 43.0357C29.5014 40.5989 29.7829 37.7662 29.9697 34.6884C29.8478 34.6838 29.7255 34.6791 29.6036 34.675C29.4168 37.7535 29.1352 40.5847 28.7677 43.0159C28.8899 43.0224 29.0122 43.0286 29.1344 43.0357Z" fill="#FFD9F0"/>
<path d="M23.9866 45.401C23.9536 45.3972 23.9207 45.3933 23.8877 45.3897L23.595 45.3536C24.1356 48.0833 24.7152 49.5167 25.2448 50.217C25.4138 50.2231 25.5829 50.2276 25.7526 50.2304C25.3099 49.8293 24.6399 48.667 23.9866 45.401Z" fill="#FFD9F0"/>
<path d="M30.1835 29.7102L29.8108 29.9437C29.7694 31.4355 29.7071 32.8914 29.6259 34.2982C29.7478 34.3023 29.8703 34.3073 29.9922 34.3119C30.0781 32.827 30.1421 31.2878 30.1835 29.7102Z" fill="#FFD9F0"/>
<path d="M28.8979 44.4924C28.9625 44.1269 29.0224 43.763 29.0779 43.4051C28.9557 43.3982 28.8331 43.3915 28.7109 43.3853C28.647 43.7905 28.5827 44.1724 28.5181 44.5326L28.8979 44.4924Z" fill="#FFD9F0"/>
<path d="M23.5741 43.0159C23.2068 40.5845 22.9247 37.7533 22.7376 34.675C22.6121 34.6793 22.4864 34.684 22.3609 34.6889C22.5477 37.7685 22.8287 40.6035 23.1954 43.0365C23.3215 43.0291 23.4478 43.0224 23.5741 43.0159Z" fill="#FFD9F0"/>
<path d="M22.5314 29.9786H22.1546C22.196 31.4622 22.2576 32.9111 22.3386 34.3121C22.4641 34.3072 22.5898 34.3023 22.7153 34.2982C22.6346 32.9021 22.5728 31.4581 22.5314 29.9786Z" fill="#FFD9F0"/>
<path d="M28.558 45.3199L28.3639 45.3473C27.705 48.6539 27.0312 49.8267 26.5869 50.2304C26.7564 50.2276 26.9253 50.2232 27.094 50.2171C27.8058 49.2735 28.3501 47.3267 28.7484 45.2963L28.558 45.3199Z" fill="#FFD9F0"/>
<path d="M27.094 50.2171C26.9253 50.2232 26.7564 50.2276 26.5869 50.2304C26.4433 50.3609 26.3237 50.4111 26.2362 50.4267C26.3104 50.4265 26.3845 50.4254 26.4586 50.4239C26.6306 50.4139 26.8016 50.395 26.9716 50.3673C27.013 50.3205 27.0539 50.2706 27.094 50.2171Z" fill="#FFD9F0"/>
<path d="M25.7526 50.2304C25.5829 50.2276 25.4138 50.2231 25.2448 50.217C25.2857 50.2713 25.3264 50.3212 25.3668 50.3667C25.537 50.3946 25.7082 50.4137 25.8804 50.4239C25.9551 50.4254 26.0295 50.4262 26.1041 50.4267C26.0167 50.4109 25.8968 50.3609 25.7526 50.2304Z" fill="#FFD9F0"/>
<path d="M29.9697 34.6884C29.9774 34.5632 29.9848 34.4378 29.9922 34.3119C29.8703 34.3073 29.7478 34.3023 29.6259 34.2982C29.6187 34.4241 29.6113 34.5498 29.6036 34.675C29.7255 34.6791 29.8478 34.6838 29.9697 34.6884Z" fill="#FFD9F0"/>
<path d="M22.7376 34.675C22.7299 34.5498 22.7225 34.4241 22.7153 34.2982C22.5896 34.3025 22.4641 34.3072 22.3386 34.3121C22.3458 34.438 22.3532 34.5637 22.3609 34.6889C22.4864 34.684 22.6121 34.6793 22.7376 34.675Z" fill="#FFD9F0"/>
<path d="M28.7109 43.3853C28.8331 43.3915 28.9557 43.3982 29.0779 43.4051C29.0838 43.368 29.0894 43.3306 29.095 43.2938C29.1083 43.2085 29.1214 43.122 29.1344 43.0357C29.0122 43.0286 28.8899 43.0224 28.7677 43.0159C28.757 43.0876 28.746 43.1598 28.735 43.231C28.727 43.2827 28.7191 43.3341 28.7109 43.3853Z" fill="#FFD9F0"/>
<path d="M23.2522 43.4059C23.3785 43.3985 23.5043 43.3917 23.6306 43.3853C23.6229 43.3357 23.615 43.2855 23.6073 43.2351C23.596 43.1626 23.5851 43.0892 23.5741 43.0159C23.4478 43.0224 23.3215 43.0291 23.1954 43.0365C23.2085 43.1225 23.2215 43.2088 23.2346 43.2938C23.2404 43.3314 23.2463 43.3685 23.2522 43.4059Z" fill="#FFD9F0"/>
<path d="M18.821 44.061C18.7081 44.0149 18.5964 43.9663 18.4877 43.9125C18.4417 43.9195 18.3956 43.9267 18.3496 43.9339C19.7958 46.9649 21.5424 49.0605 23.4412 50.0839C23.831 50.1271 24.2234 50.1612 24.6183 50.1858C22.4086 49.4778 20.4078 47.2816 18.821 44.061Z" fill="#FFD9F0"/>
<path d="M34.4557 42.8841C35.4239 40.6078 36.1797 37.9963 36.7034 35.1681C36.5805 35.1553 36.4575 35.143 36.3345 35.1305C35.7766 38.1307 34.9666 40.8346 33.9647 43.1053C34.1295 43.0339 34.2931 42.9602 34.4557 42.8841Z" fill="#FFD9F0"/>
<path d="M15.3162 29.8067L14.9282 29.6669C15.0583 31.4318 15.271 33.1493 15.5622 34.7967C15.6877 34.7834 15.8136 34.771 15.9393 34.7582C15.6594 33.1804 15.4488 31.5235 15.3162 29.8067Z" fill="#FFD9F0"/>
<path d="M36.9466 33.7332L36.577 33.7066C36.522 34.0608 36.4639 34.4115 36.4023 34.7583C36.5252 34.7708 36.6482 34.7828 36.7709 34.7959C36.833 34.4447 36.8916 34.0905 36.9466 33.7332Z" fill="#FFD9F0"/>
<path d="M18.2739 42.8724C17.3192 40.6508 16.5456 38.0293 16.0071 35.1307C15.8813 35.1435 15.7557 35.1556 15.6299 35.1689C16.134 37.8914 16.854 40.4145 17.7704 42.63C17.9368 42.7132 18.1047 42.7938 18.2739 42.8724Z" fill="#FFD9F0"/>
<path d="M33.6036 43.887C32.0033 47.2016 29.9708 49.4648 27.7228 50.1858C28.1138 50.1613 28.503 50.1276 28.8892 50.0851C30.7909 49.0615 32.5397 46.964 33.9838 43.9328C33.8645 43.9138 33.7453 43.8952 33.6259 43.8773C33.6185 43.8806 33.6111 43.8837 33.6036 43.887Z" fill="#FFD9F0"/>
<path d="M27.7228 50.1858C27.4748 50.2654 27.2243 50.3258 26.9716 50.3673C26.9595 50.3809 26.9479 50.3945 26.9359 50.4073C27.5018 50.3781 28.0633 50.3163 28.6193 50.2226C28.7095 50.1791 28.7995 50.1332 28.8892 50.0851C28.503 50.1276 28.1141 50.1615 27.7228 50.1858Z" fill="#FFD9F0"/>
<path d="M24.6183 50.1858C24.2234 50.1612 23.831 50.1271 23.4412 50.0839C23.5271 50.13 23.613 50.174 23.6991 50.2157C24.2597 50.3122 24.828 50.3763 25.4029 50.4065C25.3909 50.3937 25.3788 50.3803 25.3668 50.3667C25.1147 50.3253 24.8653 50.2649 24.6183 50.1858Z" fill="#FFD9F0"/>
<path d="M36.7034 35.1681C36.7264 35.0444 36.7489 34.9203 36.7709 34.7959C36.648 34.7831 36.5252 34.7708 36.4023 34.7583C36.38 34.883 36.3575 35.0069 36.3345 35.1305C36.4575 35.143 36.5805 35.1553 36.7034 35.1681Z" fill="#FFD9F0"/>
<path d="M16.0071 35.1307C15.9841 35.007 15.9613 34.8829 15.9393 34.7582C15.8136 34.771 15.6877 34.7834 15.5622 34.7967C15.5842 34.9214 15.6069 35.0453 15.6299 35.1689C15.7557 35.1556 15.8813 35.1435 16.0071 35.1307Z" fill="#FFD9F0"/>
<path d="M18.4738 43.9058C18.4151 43.8795 18.3568 43.8525 18.2982 43.8256C18.3154 43.862 18.3325 43.8978 18.3496 43.9339C18.3956 43.9267 18.4417 43.9195 18.4877 43.9125C18.4831 43.9102 18.4784 43.9081 18.4738 43.9058Z" fill="#FFD9F0"/>
<path d="M33.9838 43.9328C34.0278 43.8403 34.0715 43.7469 34.115 43.6527C33.9532 43.7298 33.79 43.8046 33.6259 43.8773C33.7453 43.8952 33.8645 43.9138 33.9838 43.9328Z" fill="#FFD9F0"/>
<path d="M25.4029 50.4065C25.5616 50.4149 25.7207 50.4206 25.8804 50.4239C25.7082 50.4137 25.537 50.3946 25.3668 50.3667C25.3788 50.3803 25.3909 50.3937 25.4029 50.4065Z" fill="#FFD9F0"/>
<path d="M26.4586 50.4239C26.6181 50.4208 26.7771 50.4155 26.9359 50.4073C26.9479 50.3945 26.9595 50.3809 26.9716 50.3673C26.8016 50.395 26.6306 50.4139 26.4586 50.4239Z" fill="#FFD9F0"/>
<path d="M36.0858 14.6297C36.2113 14.6144 36.3368 14.5991 36.4623 14.5832C35.9178 12.0494 35.1795 9.71214 34.2634 7.66463C34.2279 7.58477 34.192 7.50538 34.1559 7.4268C34.0307 7.44677 33.9048 7.46661 33.7793 7.48581C34.7235 9.52769 35.5082 11.9446 36.0858 14.6297Z" fill="#FFD9F0"/>
<path d="M24.6286 0.816299C24.2289 0.841128 23.8318 0.875919 23.4375 0.919433C21.5388 1.94614 19.7928 4.04375 18.3499 7.07419C18.4764 7.09416 18.6031 7.11395 18.7297 7.1329C20.3328 3.8045 22.3721 1.5343 24.6286 0.816299Z" fill="#FFD9F0"/>
<path d="M18.185 7.42666C18.149 7.5055 18.1132 7.58461 18.0774 7.66447C17.1637 9.71199 16.4269 12.0492 15.8832 14.583C16.0082 14.5989 16.1332 14.6146 16.2584 14.6297C16.835 11.9448 17.6191 9.52776 18.563 7.48588C18.437 7.46668 18.3111 7.44689 18.185 7.42666Z" fill="#FFD9F0"/>
<path d="M14.8418 22.8395L15.2311 22.5963C15.3684 19.9119 15.6953 17.3566 16.1804 15.0001C16.0555 14.9847 15.9305 14.9693 15.8053 14.9534C15.2964 17.4294 14.9699 20.0865 14.8418 22.8395Z" fill="#FFD9F0"/>
<path d="M33.6127 7.13283C33.739 7.11388 33.8651 7.09404 33.9911 7.07407C32.5469 4.0426 30.8014 1.94592 28.9038 0.919475C28.5094 0.87596 28.1128 0.841226 27.713 0.816397C29.9697 1.53439 32.009 3.80494 33.6127 7.13283Z" fill="#FFD9F0"/>
<path d="M37.1029 22.363L37.4725 22.2148C37.3261 19.6846 37.0111 17.242 36.54 14.9536C36.4147 14.9695 36.2893 14.9853 36.1641 15.0006C36.6357 17.2885 36.958 19.7639 37.1029 22.363Z" fill="#FFD9F0"/>
<path d="M24.6286 0.816299C24.8753 0.737972 25.1248 0.677816 25.3763 0.637118C25.3883 0.623549 25.4003 0.61005 25.4123 0.596997C24.8308 0.6272 24.2559 0.692129 23.6887 0.790165C23.6046 0.831121 23.5208 0.874384 23.4375 0.919433C23.8318 0.875919 24.2289 0.841128 24.6286 0.816299Z" fill="#FFD9F0"/>
<path d="M27.713 0.816397C28.1128 0.841226 28.5094 0.87596 28.9038 0.919475C28.8218 0.874937 28.7395 0.832702 28.6569 0.792257C28.0887 0.693194 27.5134 0.628253 26.9324 0.597538C26.9446 0.610591 26.9569 0.624161 26.9694 0.637983C27.2197 0.678686 27.4676 0.738328 27.713 0.816397Z" fill="#FFD9F0"/>
<path d="M36.0858 14.6297C36.1124 14.7529 36.1385 14.8765 36.1641 15.0006C36.2893 14.9853 36.4147 14.9695 36.54 14.9536C36.5147 14.8297 36.4886 14.7063 36.4623 14.5832C36.3368 14.5991 36.2113 14.6144 36.0858 14.6297Z" fill="#FFD9F0"/>
<path d="M15.8832 14.583C15.8569 14.7059 15.8306 14.8295 15.8053 14.9534C15.9305 14.9693 16.0555 14.9847 16.1804 15.0001C16.206 14.8762 16.2321 14.7526 16.2584 14.6297C16.1334 14.6143 16.0082 14.5989 15.8832 14.583Z" fill="#FFD9F0"/>
<path d="M18.7297 7.1329C18.6031 7.11395 18.4764 7.09416 18.3499 7.07419C18.2944 7.1904 18.2395 7.30764 18.185 7.42666C18.3111 7.44689 18.437 7.46668 18.563 7.48588C18.618 7.36685 18.6737 7.24911 18.7297 7.1329Z" fill="#FFD9F0"/>
<path d="M33.7793 7.48581C33.9048 7.46661 34.0307 7.44677 34.1559 7.4268C34.1015 7.30778 34.0463 7.19029 33.9911 7.07407C33.8651 7.09404 33.739 7.11388 33.6127 7.13283C33.6687 7.24929 33.7244 7.36678 33.7793 7.48581Z" fill="#FFD9F0"/>
<path d="M25.9159 0.579675C25.7475 0.582491 25.5797 0.588294 25.4123 0.596997C25.4003 0.61005 25.3883 0.623549 25.3763 0.637118C25.5549 0.608195 25.7349 0.588889 25.9159 0.579675Z" fill="#FFD9F0"/>
<path d="M26.9694 0.637983C26.9569 0.624161 26.9446 0.610591 26.9324 0.597538C26.7644 0.588836 26.5956 0.582663 26.4266 0.579593C26.6086 0.589065 26.7898 0.608799 26.9694 0.637983Z" fill="#FFD9F0"/>
<path d="M7.08648 19.6074H7.54554C8.6633 19.6074 9.20748 20.5297 9.20748 21.9759C9.20748 23.7562 8.84887 24.603 7.08648 24.7036V19.6074ZM7.46043 29.4936C7.46861 29.5596 7.47704 29.6257 7.48573 29.6917C7.48752 29.6989 7.48905 29.7058 7.49084 29.7129H8.30469V29.4826H7.08648V24.9759L9.82426 29.7129H13.9083V29.4826H13.2205L10.1673 24.6462C11.659 24.2438 12.5045 23.3677 12.5045 21.948C12.5045 20.2251 10.8845 19.3783 8.06059 19.3783H2.65762L3.93309 20.1537V29.4826H2.78875V29.7129H7.10156C7.0921 29.64 7.0829 29.5668 7.07395 29.4936H7.46043Z" fill="#FFD9F0"/>
<path d="M15.3999 23.7437C15.3999 23.2098 15.6146 22.8954 15.9873 22.9036C16.5972 22.9036 17.4343 23.9659 17.4343 25.2138C17.4343 25.9389 17.2766 26.5131 16.876 27.0301C16.0151 26.1399 15.3999 24.9343 15.3999 23.7437ZM19.7715 28.4485C18.8102 28.4485 17.7788 27.9176 16.9611 27.1141C18.6816 26.4642 19.5985 25.4191 19.5985 24.2285C19.5985 23.1806 18.6678 22.3909 17.3198 22.3909C15.0272 22.3909 13.6222 24.1279 13.6222 26.2238C13.6222 28.45 15.2841 29.8571 17.306 29.8571C18.6384 29.8571 19.5985 29.34 20.2012 28.4206L20.1902 28.405C20.0527 28.4349 19.9121 28.4495 19.7715 28.4485Z" fill="#FFD9F0"/>
<path d="M24.2142 22.9052H26.063V22.6746H24.2157V20.6652C24.2157 19.747 24.2576 19.275 24.4445 19.2021C24.6313 19.1296 25.0876 19.8617 25.5063 20.4794L26.6672 22.1729H26.681L27.0678 19.3784C26.3947 19.0966 25.6734 18.9489 24.9439 18.9438C22.9806 18.9438 21.5186 20.0196 21.3606 22.6746H20.4859V22.9052H21.3468V29.4727H20.6309V29.7033H25.4324V29.4727H24.2142V22.9052Z" fill="#FFD9F0"/>
<path d="M34.0904 22.268L30.4067 23.5591L31.2231 24.2577V28.3842C30.9884 28.4702 30.7415 28.5173 30.4918 28.524C29.7761 28.524 29.6754 28.053 29.6754 26.8471V22.3407L25.9919 23.6318L26.8083 24.3306V27.4102C26.8083 29.1193 27.3675 29.8652 28.657 29.8652C29.4607 29.8652 30.2771 29.2967 31.2231 28.6079V29.7129H34.8061V29.4826L34.0904 29.4867V22.268Z" fill="#FFD9F0"/>
<path d="M39.8376 27.6741C39.408 27.6741 38.8694 27.2159 38.0323 25.6791C37.4518 24.6171 37.1727 23.9142 37.1727 23.4109C37.1727 23.0101 37.4293 22.7794 37.7309 22.7794C38.1747 22.7794 38.6757 23.2686 39.5225 24.775C40.1239 25.8521 40.3818 26.5832 40.3818 27.0429C40.3818 27.4591 40.1671 27.6741 39.8376 27.6741ZM37.7879 31.5982H39.3354C40.4644 31.5982 40.883 31.7699 40.883 32.0996C40.883 32.6305 40.0094 33.0331 38.9057 33.0331C37.4434 33.0331 36.2965 32.4111 35.9532 31.0767C36.3397 31.4067 36.9424 31.5938 37.7879 31.5982ZM40.742 22.88C40.1628 22.5409 39.4995 22.3724 38.829 22.3952C36.7515 22.3952 35.5471 23.6584 35.5471 25.2373C35.521 26.0845 35.9057 26.8919 36.5797 27.4046C35.7342 28.2654 35.4034 28.9542 35.4034 29.7439C35.4034 30.2553 35.5471 30.6856 35.8625 31.0015C35.261 31.2319 34.9165 31.6192 34.9165 32.0494C34.9165 32.9535 35.9491 33.3838 38.0561 33.3838C40.6931 33.3838 42.4706 32.3218 42.4706 30.6856C42.4706 29.4378 41.5668 28.9207 39.9046 28.9207H38.2651C37.0178 28.9207 36.5769 28.3171 36.7164 27.4998C37.3363 27.8966 38.0596 28.1013 38.7953 28.088C40.7726 28.088 41.963 26.8681 41.963 25.2457C41.963 24.3012 41.6044 23.5118 40.9303 23.0101C41.5709 23.1524 42.489 23.5983 43.1628 23.9994L43.1768 23.9853V21.6322L43.1643 21.6224C42.3034 22.0625 41.5152 22.4608 40.742 22.88Z" fill="#FFD9F0"/>
<path d="M45.7567 22.9036C46.3735 22.9036 47.2037 23.9659 47.2037 25.2137C47.2037 25.9389 47.046 26.5131 46.6455 27.0301C45.7846 26.1401 45.1694 24.9342 45.1694 23.7437C45.1694 23.2097 45.3841 22.8954 45.7567 22.9036ZM45.2637 28.1016C45.3345 27.6524 45.3907 27.2006 45.4316 26.7465L45.5461 26.7562C45.5137 27.2922 45.4597 27.8257 45.3848 28.3555C45.3542 28.7167 45.3179 29.0774 45.2749 29.437C45.8086 29.7104 46.4234 29.8571 47.0754 29.8571C48.4079 29.8571 49.3695 29.34 49.9706 28.4206L49.9597 28.4052C49.8221 28.4351 49.6816 28.4495 49.541 28.4485C48.5809 28.4485 47.5483 27.9176 46.7306 27.1141C48.4511 26.4642 49.3695 25.419 49.3695 24.2285C49.3695 23.1806 48.4373 22.3911 47.0892 22.3911C44.7967 22.3911 43.3916 24.1279 43.3916 26.2241C43.3916 27.563 43.9939 28.6056 44.9133 29.2238C44.9618 28.7956 45.0017 28.366 45.0326 27.9357L45.2637 28.1016Z" fill="#FFD9F0"/>
<path d="M29.3533 44.4243L28.908 44.4913L28.8979 44.4924C28.8506 44.7607 28.8008 45.0291 28.7484 45.2963L29.0212 45.2628L29.4816 45.176C30.7072 44.9426 31.9065 44.5881 33.0621 44.1168C33.2438 44.0431 33.4242 43.9661 33.6036 43.887C33.6054 43.8829 33.6076 43.879 33.6096 43.8749C33.1986 43.8132 32.7875 43.7571 32.3755 43.7059C31.3896 44.0269 30.3788 44.2673 29.3533 44.4243Z" fill="#FFD9F0"/>
<path d="M17.8903 43.6316C17.9887 43.6152 18.0872 43.5995 18.1856 43.5839C18.1481 43.5017 18.1105 43.419 18.0732 43.3358C17.9699 43.1042 17.869 42.8688 17.7704 42.63C14.6822 41.088 12.0683 38.7587 10.1835 35.8926C10.0018 35.9217 9.82035 35.9514 9.63887 35.9816C10.409 37.2712 11.3178 38.4762 12.3512 39.5741C13.9447 41.2451 15.8204 42.6182 17.8903 43.6316Z" fill="#FFD9F0"/>
<path d="M39.0578 39.8033C38.8303 40.0099 38.5987 40.2085 38.3672 40.4097C38.1356 40.6109 37.8871 40.7883 37.6484 40.9785C37.1561 41.3389 36.6508 41.6773 36.1288 41.9929C35.5867 42.319 35.028 42.6161 34.4557 42.8841C34.391 43.0362 34.3256 43.1867 34.2591 43.3357C34.2223 43.4186 34.185 43.5008 34.1476 43.5822C34.176 43.5868 34.2047 43.5915 34.2331 43.5959C34.97 43.2393 35.6843 42.8371 36.3719 42.3912C36.8964 42.0543 37.4002 41.6924 37.89 41.2997C38.1312 41.1029 38.3782 40.9127 38.6141 40.7087L39.3119 40.0854C40.2331 39.2376 41.0697 38.3015 41.8094 37.2909C42.1156 36.8642 42.404 36.4261 42.6755 35.9771C42.5492 35.9561 42.4233 35.9347 42.2973 35.9145C42.0461 36.3031 41.7808 36.683 41.5024 37.0534C40.7724 38.0422 39.9542 38.9627 39.0578 39.8033Z" fill="#FFD9F0"/>
<path d="M28.4602 44.5389L28.0139 44.585L27.5658 44.6116L27.118 44.6407L26.2193 44.6548L25.7715 44.6395L25.3221 44.6254C25.1728 44.6157 25.0248 44.6003 24.8756 44.589L24.4277 44.5514C24.28 44.5373 24.132 44.5138 23.984 44.4954L23.8121 44.4744C23.8701 44.8008 23.9283 45.1092 23.9866 45.401C24.109 45.4151 24.2317 45.4302 24.3536 45.4401L24.8211 45.4696C24.9773 45.4793 25.1337 45.4919 25.2899 45.4972H26.2262L26.6937 45.4821L27.1625 45.4652L27.6287 45.4261L28.0946 45.3856L28.3639 45.3473C28.4156 45.0887 28.4669 44.8175 28.5181 44.5326L28.4602 44.5389Z" fill="#FFD9F0"/>
<path d="M33.9647 43.1053C33.6968 43.2213 33.426 43.3304 33.1525 43.4335C33.3603 43.4624 33.5677 43.4925 33.7752 43.524C33.8391 43.386 33.9023 43.2466 33.9647 43.1053Z" fill="#FFD9F0"/>
<path d="M19.5119 43.3895C19.2729 43.2974 19.0338 43.213 18.7946 43.1053C18.6197 43.0303 18.4462 42.9525 18.2739 42.8724C18.369 43.0938 18.4661 43.3111 18.5648 43.5243C18.8802 43.4764 19.1957 43.4315 19.5119 43.3895Z" fill="#FFD9F0"/>
<path d="M7.96757 32.4527C8.0624 32.7202 8.16234 32.9861 8.26841 33.2498C8.60683 34.0699 8.99705 34.8656 9.43541 35.633C9.6105 35.6036 9.78578 35.5744 9.96112 35.546C9.46857 34.7614 9.02935 33.9383 8.64926 33.0821C8.16259 31.9963 7.77508 30.8684 7.49084 29.7129L7.48831 29.713C7.60947 30.6447 7.76999 31.5591 7.96757 32.4527Z" fill="#FFD9F0"/>
<path d="M43.7071 34.0377C43.9647 33.4825 44.196 32.9166 44.4015 32.3422C44.5367 31.7161 44.653 31.0861 44.7499 30.4533C44.4171 31.6377 43.978 32.7922 43.4364 33.9023C43.1565 34.4726 42.8494 35.0286 42.5159 35.5684C42.6378 35.5884 42.7595 35.6085 42.8812 35.629C43.1798 35.1114 43.4555 34.5806 43.7071 34.0377Z" fill="#FFD9F0"/>
<path d="M23.0966 44.367L22.6544 44.29C22.5064 44.2649 22.3612 44.2257 22.2163 44.195L21.7779 44.0972C21.6315 44.0652 21.4891 44.0189 21.3439 43.9813C21.0553 43.9017 20.7662 43.8233 20.483 43.7271C20.4217 43.7061 20.3598 43.6859 20.2979 43.6657C19.7747 43.7274 19.252 43.7967 18.7303 43.875C18.7605 43.9375 18.7906 43.9993 18.821 44.061C18.9936 44.1314 19.1692 44.1965 19.3417 44.2664C19.6319 44.3837 19.9304 44.483 20.2264 44.5849C20.5221 44.687 20.8248 44.7707 21.1264 44.8546C21.2785 44.8938 21.4277 44.9412 21.5798 44.9747L22.0389 45.0768C22.191 45.1104 22.3431 45.1495 22.4979 45.1761L22.9598 45.2557C23.1132 45.2808 23.2668 45.3116 23.4232 45.3325L23.595 45.3536C23.5365 45.0588 23.4788 44.7494 23.4212 44.4235C23.3124 44.4058 23.2044 44.3844 23.0966 44.367Z" fill="#FFD9F0"/>
<path d="M9.63887 35.9816C9.82035 35.9514 10.0018 35.9217 10.1835 35.8926C10.1081 35.7781 10.0342 35.6624 9.96112 35.546C9.78578 35.5744 9.6105 35.6036 9.43541 35.633C9.50212 35.75 9.56986 35.8662 9.63887 35.9816Z" fill="#FFD9F0"/>
<path d="M42.6755 35.9771C42.7452 35.8616 42.8137 35.7457 42.8812 35.629C42.7595 35.6085 42.6378 35.5884 42.5159 35.5684C42.444 35.6844 42.3714 35.7998 42.2973 35.9145C42.4236 35.935 42.5494 35.9561 42.6755 35.9771Z" fill="#FFD9F0"/>
<path d="M17.8903 43.6316C18.0255 43.6976 18.1612 43.7624 18.2982 43.8256C18.2604 43.7455 18.223 43.665 18.1856 43.5839C18.0872 43.5995 17.9887 43.6152 17.8903 43.6316Z" fill="#FFD9F0"/>
<path d="M34.115 43.6527C34.1546 43.634 34.1937 43.6148 34.2331 43.5959C34.2044 43.5913 34.176 43.5866 34.1476 43.5822C34.1367 43.6058 34.1257 43.6292 34.115 43.6527Z" fill="#FFD9F0"/>
<path d="M32.3755 43.7059C32.7875 43.7571 33.1986 43.8132 33.6096 43.8749C33.6653 43.7592 33.7205 43.642 33.7752 43.524C33.5679 43.4922 33.3603 43.4624 33.1525 43.4335C33.0515 43.4717 32.9503 43.509 32.8486 43.5454C32.6916 43.6009 32.5337 43.6544 32.3755 43.7059Z" fill="#FFD9F0"/>
<path d="M18.7303 43.875C19.252 43.7967 19.7747 43.7274 20.2979 43.6657C20.0748 43.5933 19.8503 43.5239 19.6318 43.4363C19.5919 43.4205 19.5521 43.4049 19.5119 43.3895C19.1957 43.4315 18.8802 43.4764 18.5648 43.5243C18.6195 43.6425 18.6746 43.7593 18.7303 43.875Z" fill="#FFD9F0"/>
<path d="M28.5181 44.5326C28.4669 44.8175 28.4156 45.0887 28.3639 45.3473L28.558 45.3199L28.7484 45.2963C28.8008 45.0291 28.8503 44.7604 28.8979 44.4924L28.5181 44.5326Z" fill="#FFD9F0"/>
<path d="M23.5388 44.4409C23.4995 44.4358 23.4604 44.4296 23.4212 44.4235C23.4785 44.7491 23.5365 45.0588 23.595 45.3536L23.8877 45.3897C23.9207 45.3933 23.9536 45.3972 23.9866 45.401C23.9283 45.1092 23.8701 44.8008 23.8121 44.4744L23.5388 44.4409Z" fill="#FFD9F0"/>
<path d="M33.6259 43.8773C33.6205 43.8765 33.615 43.8757 33.6096 43.8749C33.6076 43.879 33.6054 43.8829 33.6036 43.887C33.6111 43.8837 33.6185 43.8806 33.6259 43.8773Z" fill="#FFD9F0"/>
<path d="M34.1476 43.5822C34.185 43.5008 34.2223 43.4186 34.2591 43.3357C34.3256 43.1867 34.391 43.0362 34.4557 42.8841C34.2931 42.9602 34.1295 43.0339 33.9647 43.1053C33.9023 43.2466 33.8391 43.386 33.7752 43.524C33.8995 43.5429 34.0234 43.5625 34.1476 43.5822Z" fill="#FFD9F0"/>
<path d="M18.4877 43.9125C18.5966 43.9666 18.7081 44.0149 18.821 44.061C18.7906 43.9996 18.7602 43.9372 18.7303 43.875C18.6493 43.8871 18.5688 43.9 18.4877 43.9125Z" fill="#FFD9F0"/>
<path d="M18.2739 42.8724C18.1047 42.7938 17.9368 42.7132 17.7704 42.63C17.869 42.8688 17.9699 43.1042 18.0732 43.3358C18.1105 43.4193 18.1478 43.5019 18.1856 43.5839C18.3119 43.5636 18.4383 43.5435 18.5648 43.5243C18.4661 43.3111 18.369 43.0938 18.2739 42.8724Z" fill="#FFD9F0"/>
<path d="M33.7752 43.524C33.7205 43.642 33.6653 43.7592 33.6096 43.8749C33.615 43.8757 33.6205 43.8765 33.6259 43.8773C33.79 43.8046 33.9532 43.7298 34.115 43.6527C34.1257 43.6292 34.1367 43.6058 34.1476 43.5822C34.0237 43.5622 33.8995 43.5429 33.7752 43.524Z" fill="#FFD9F0"/>
<path d="M18.4877 43.9125C18.5688 43.9 18.6493 43.8871 18.7303 43.875C18.6746 43.7593 18.6195 43.6425 18.5648 43.5243C18.4383 43.5435 18.3119 43.5636 18.1856 43.5839C18.223 43.665 18.2604 43.7455 18.2982 43.8256C18.3568 43.8525 18.4151 43.8795 18.4738 43.9058C18.4784 43.9081 18.4831 43.9102 18.4877 43.9125Z" fill="#FFD9F0"/>
<path d="M7.48831 29.713L7.49084 29.7129C7.48905 29.7058 7.48752 29.6989 7.48573 29.6917C7.48675 29.6986 7.48729 29.7058 7.48831 29.713Z" fill="#FFD9F0"/>
<path d="M45.3848 28.3555C45.4597 27.8257 45.5137 27.2922 45.5461 26.7562L45.4316 26.7465C45.3907 27.2006 45.3345 27.6524 45.2637 28.1016L45.3982 28.1981C45.3941 28.2506 45.3892 28.3031 45.3848 28.3555Z" fill="#FFD9F0"/>
<path d="M7.45626 19.1156H7.84836C8.21873 17.2795 8.74496 15.526 9.40698 13.8811C9.2802 13.8545 9.15355 13.828 9.02703 13.8009C8.35837 15.4721 7.82816 17.2523 7.45626 19.1156Z" fill="#FFD9F0"/>
<path d="M44.7732 20.6988C44.8662 21.308 44.9393 21.9234 44.9922 22.5446L45.3565 22.3239C45.3033 21.7652 45.235 21.1977 45.1525 20.6471C44.791 18.212 44.1669 15.9145 43.3234 13.8004C43.1966 13.8275 43.0699 13.854 42.9431 13.8806C43.7874 15.9829 44.4125 18.2714 44.7732 20.6988Z" fill="#FFD9F0"/>
<path d="M42.7977 13.525C42.9247 13.4987 43.0519 13.472 43.179 13.4451C42.0704 10.7728 40.6084 8.40411 38.8818 6.43543C38.7432 6.47152 38.6045 6.5071 38.4657 6.54191C40.2064 8.49139 41.6815 10.8524 42.7977 13.525Z" fill="#FFD9F0"/>
<path d="M38.1784 6.22655C38.319 6.19174 38.4598 6.15591 38.6001 6.12008C36.8109 4.15677 34.7515 2.61518 32.5178 1.59667C31.6212 1.3576 30.7046 1.16828 29.7711 1.03108C32.8984 1.82791 35.778 3.64329 38.1784 6.22655Z" fill="#FFD9F0"/>
<path d="M13.8804 6.54305C13.7421 6.50824 13.6041 6.47279 13.4663 6.43696C11.7366 8.41383 10.2774 10.7868 9.17195 13.4461C9.29873 13.473 9.42589 13.4995 9.55293 13.5259C10.6658 10.8661 12.1369 8.50072 13.8804 6.54305Z" fill="#FFD9F0"/>
<path d="M13.7475 6.12185C13.8873 6.15769 14.0271 6.19314 14.1669 6.22769C16.5469 3.65953 19.4091 1.83683 22.5449 1.03487C21.614 1.17259 20.7 1.36246 19.8056 1.60154C17.5722 2.62363 15.5239 4.16777 13.7475 6.12185Z" fill="#FFD9F0"/>
<path d="M23.6887 0.790165C23.7726 0.749209 23.8566 0.710298 23.941 0.673693C22.9444 0.763027 21.9519 0.912975 20.9694 1.12287C20.5763 1.26673 20.1883 1.42645 19.8056 1.60154C20.7 1.36246 21.614 1.17259 22.5449 1.03487C22.9224 0.938374 23.3038 0.856716 23.6887 0.790165Z" fill="#FFD9F0"/>
<path d="M29.7711 1.03108C30.7046 1.16828 31.6212 1.3576 32.5178 1.59667C32.1344 1.42184 31.7456 1.26237 31.3525 1.11877C30.3764 0.910923 29.3905 0.762567 28.4005 0.673744C28.4862 0.711115 28.5718 0.750535 28.6569 0.792257C29.0316 0.857531 29.403 0.937392 29.7711 1.03108Z" fill="#FFD9F0"/>
<path d="M25.879 0.197482C25.9749 0.196459 26.0707 0.195689 26.1666 0.195689H26.1709C26.2688 0.195689 26.3667 0.196459 26.4644 0.197482C26.4976 0.197994 26.5308 0.198506 26.5641 0.199018C26.5835 0.199276 26.6027 0.199657 26.6219 0.199914C26.4718 0.195305 26.3213 0.192746 26.1705 0.192746C26.0194 0.192746 25.8686 0.195305 25.7183 0.199914C25.7362 0.199657 25.7538 0.199276 25.7717 0.199018L25.879 0.197482Z" fill="#FFD9F0"/>
<path d="M26.2278 0.577536C26.2153 0.57549 26.2032 0.574219 26.1922 0.573707H26.149C26.1378 0.574219 26.126 0.57549 26.1135 0.577536C26.1324 0.577536 26.1514 0.577026 26.1705 0.577026C26.1897 0.577026 26.2086 0.577536 26.2278 0.577536Z" fill="#FFD9F0"/>
<path d="M9.17195 13.4461C9.12288 13.5638 9.07457 13.6821 9.02703 13.8009C9.15355 13.828 9.28045 13.8548 9.40698 13.8811C9.45477 13.7621 9.5036 13.6436 9.55293 13.5259C9.42589 13.4995 9.29873 13.473 9.17195 13.4461Z" fill="#FFD9F0"/>
<path d="M42.9431 13.8806C43.0699 13.854 43.1966 13.8275 43.3234 13.8004C43.2761 13.6816 43.2278 13.5629 43.179 13.4451C43.0519 13.472 42.9247 13.4987 42.7977 13.525C42.8468 13.643 42.8953 13.7616 42.9431 13.8806Z" fill="#FFD9F0"/>
<path d="M38.8818 6.43543C38.7885 6.3292 38.6947 6.224 38.6001 6.12008C38.4598 6.15591 38.319 6.19174 38.1784 6.22655C38.275 6.33048 38.3709 6.43568 38.4657 6.54191C38.6045 6.5071 38.7432 6.47152 38.8818 6.43543Z" fill="#FFD9F0"/>
<path d="M14.1669 6.22769C14.0271 6.19314 13.8873 6.15769 13.7475 6.12185C13.6529 6.22578 13.5594 6.33073 13.4663 6.43696C13.6041 6.47279 13.7421 6.50824 13.8804 6.54305C13.9752 6.43657 14.0708 6.33162 14.1669 6.22769Z" fill="#FFD9F0"/>
<path d="M25.7717 0.199018C25.7538 0.199276 25.7362 0.199657 25.7183 0.199914C25.7137 0.200172 25.7091 0.200124 25.7045 0.200378C25.7267 0.199867 25.7492 0.199276 25.7717 0.199018Z" fill="#FFD9F0"/>
<path d="M26.6356 0.200316C26.631 0.200316 26.6265 0.200172 26.6219 0.199914C26.6027 0.199657 26.5835 0.199276 26.5641 0.199018C26.5881 0.199276 26.6118 0.199805 26.6356 0.200316Z" fill="#FFD9F0"/>
<path d="M26.1922 0.573707C26.1884 0.573449 26.1842 0.573099 26.1807 0.573099C26.1773 0.573099 26.1738 0.572841 26.1704 0.572841C26.1671 0.572841 26.1638 0.573099 26.1605 0.573099C26.1569 0.573099 26.1529 0.573449 26.149 0.573707H26.1922Z" fill="#FFD9F0"/>
<path d="M28.4005 0.673744C29.3905 0.762567 30.3764 0.910923 31.3525 1.11877C31.3474 1.11698 31.3419 1.11522 31.3368 1.11317C30.3757 0.90916 29.394 0.760443 28.3956 0.671621C28.3972 0.672387 28.399 0.672975 28.4005 0.673744Z" fill="#FFD9F0"/>
<path d="M23.941 0.673693C23.9425 0.672923 23.9444 0.672314 23.946 0.671549C22.9409 0.761137 21.9527 0.911155 20.9853 1.11721C20.9799 1.11926 20.9748 1.12083 20.9694 1.12287C21.9519 0.912721 22.9441 0.763285 23.941 0.673693Z" fill="#FFD9F0"/>
<path d="M23.946 0.671549C24.6704 0.356959 25.4147 0.195673 26.1705 0.195673C26.9266 0.195673 27.671 0.357031 28.3956 0.671621C29.394 0.760701 30.3755 0.909414 31.3368 1.11317C29.8293 0.564878 28.2531 0.250744 26.6356 0.200316C26.6116 0.200063 26.5878 0.199272 26.5641 0.199018C26.5308 0.198506 26.4976 0.197994 26.4644 0.197482C26.3667 0.196459 26.2688 0.195689 26.1709 0.195689H26.1666C26.0707 0.195689 25.9749 0.196459 25.879 0.197482C25.8433 0.197994 25.8077 0.198502 25.7717 0.199018C25.7494 0.199529 25.7267 0.200124 25.7045 0.200378C24.074 0.251318 22.4928 0.567389 20.9853 1.11721C21.9527 0.911155 22.9409 0.761137 23.946 0.671549Z" fill="#FFD9F0"/>
<path d="M26.149 0.573707C26.1337 0.573707 26.1183 0.573857 26.1029 0.573857C26.0406 0.574622 25.9783 0.576605 25.9159 0.579675C25.9818 0.578652 26.0476 0.577794 26.1135 0.577536C26.126 0.575744 26.1381 0.574477 26.149 0.573707Z" fill="#FFD9F0"/>
<path d="M26.2278 0.577536C26.2942 0.577794 26.3604 0.578569 26.4266 0.579593C26.364 0.576523 26.3014 0.574729 26.2388 0.57396C26.2232 0.573706 26.2076 0.573707 26.1922 0.573707C26.2032 0.574219 26.2153 0.57549 26.2278 0.577536Z" fill="#FFD9F0"/>
<path d="M26.1605 0.573099C26.1413 0.573099 26.1221 0.573599 26.1029 0.573857C26.1183 0.573857 26.1337 0.573707 26.149 0.573707C26.1529 0.573449 26.1569 0.573099 26.1605 0.573099Z" fill="#FFD9F0"/>
<path d="M26.2388 0.57396C26.2193 0.573702 26.2001 0.573099 26.1807 0.573099C26.1842 0.573099 26.1884 0.573449 26.1922 0.573707C26.2076 0.573707 26.2232 0.573706 26.2388 0.57396Z" fill="#FFD9F0"/>
<path d="M26.9324 0.597538C27.5134 0.628253 28.0887 0.693194 28.6569 0.792257C28.5718 0.750535 28.4862 0.711115 28.4005 0.673744C27.908 0.62946 27.4144 0.599845 26.9203 0.584999C26.9244 0.589092 26.9283 0.593187 26.9324 0.597538Z" fill="#FFD9F0"/>
<path d="M25.4123 0.596997C25.4164 0.592645 25.4203 0.588885 25.4244 0.584788C24.9293 0.599634 24.4346 0.629413 23.941 0.673693C23.8566 0.710298 23.7726 0.749209 23.6887 0.790165C24.2559 0.692129 24.8308 0.6272 25.4123 0.596997Z" fill="#FFD9F0"/>
<path d="M25.4244 0.584788L25.4249 0.584221C24.9283 0.599067 24.4349 0.628034 23.946 0.671549C23.9444 0.672314 23.9425 0.672923 23.941 0.673693C24.4346 0.629413 24.9293 0.599634 25.4244 0.584788Z" fill="#FFD9F0"/>
<path d="M26.9203 0.584999C27.4144 0.599845 27.908 0.62946 28.4005 0.673744C28.399 0.672975 28.3972 0.672387 28.3956 0.671621C27.9074 0.628106 27.4155 0.599206 26.9199 0.58436L26.9203 0.584999Z" fill="#FFD9F0"/>
<path d="M26.1761 0.20262C26.4 0.20262 26.652 0.303813 26.9199 0.58436C27.4155 0.599206 27.9074 0.628106 28.3956 0.671621C27.671 0.357031 26.9266 0.195673 26.1705 0.195673C25.4147 0.195673 24.6704 0.356959 23.946 0.671549C24.4349 0.628034 24.9283 0.599067 25.4249 0.584221C25.6583 0.339768 25.9083 0.20262 26.1761 0.20262Z" fill="#FFD9F0"/>
<path d="M26.4266 0.579593C26.5956 0.582663 26.7642 0.588578 26.9324 0.597538C26.9283 0.593183 26.9242 0.58935 26.9203 0.584999C26.6931 0.578343 26.466 0.574725 26.2388 0.57396C26.3014 0.574729 26.364 0.576523 26.4266 0.579593Z" fill="#FFD9F0"/>
<path d="M25.9159 0.579675C25.978 0.576347 26.0403 0.57488 26.1029 0.573857C25.8767 0.574622 25.6506 0.578132 25.4244 0.584788C25.4203 0.588885 25.4164 0.592645 25.4123 0.596997C25.5797 0.588294 25.7475 0.582491 25.9159 0.579675Z" fill="#FFD9F0"/>
<path d="M26.1605 0.573099C26.1638 0.573099 26.1671 0.572841 26.1704 0.572841C26.1738 0.572841 26.1773 0.573099 26.1807 0.573099C26.2001 0.573099 26.2193 0.573702 26.2388 0.57396C26.466 0.574725 26.6931 0.578343 26.9203 0.584999L26.9199 0.58436C26.6709 0.576939 26.4212 0.572841 26.1704 0.572841C25.921 0.572841 25.6726 0.576796 25.4249 0.584221L25.4244 0.584788C25.6506 0.578132 25.8767 0.574622 26.1029 0.573857C26.1221 0.573599 26.1413 0.573099 26.1605 0.573099Z" fill="#FFD9F0"/>
<path d="M26.9199 0.58436C26.652 0.303813 26.4 0.20262 26.1761 0.20262C25.9083 0.20262 25.6583 0.339768 25.4249 0.584221C25.6726 0.576796 25.921 0.572841 26.1704 0.572841C26.4212 0.572841 26.6709 0.576939 26.9199 0.58436Z" fill="#FFD9F0"/>
<path d="M7.96757 32.4527C7.65087 31.5586 7.39653 30.6432 7.20662 29.713L7.10156 29.7129C7.3748 31.8408 7.85191 33.8793 8.50524 35.7932C8.63227 35.7707 8.7596 35.7487 8.88688 35.7267C8.5247 34.6721 8.21653 33.5787 7.96757 32.4527Z" fill="#FFD9F0"/>
<path d="M44.9133 29.2238C44.8667 29.6346 44.8125 30.0446 44.7499 30.4533C44.8568 30.073 44.9526 29.6898 45.0372 29.3038C44.9953 29.2779 44.9539 29.2512 44.9133 29.2238Z" fill="#FFD9F0"/>
<path d="M14.1672 44.7771C14.0271 44.8116 13.8871 44.8469 13.7473 44.8824C15.5219 46.8345 17.5672 48.3776 19.7984 49.3995C20.6907 49.6383 21.6029 49.8282 22.5321 49.9661C19.4012 49.1624 16.5438 47.3414 14.1672 44.7771Z" fill="#FFD9F0"/>
<path d="M38.6069 44.8859C38.466 44.8498 38.3248 44.8143 38.1837 44.7795C37.9575 45.024 37.7271 45.2614 37.4922 45.4917C35.202 47.7397 32.6088 49.2496 29.8554 49.9594C30.7932 49.8184 31.7141 49.6245 32.6144 49.3806C34.4442 48.5361 36.1753 47.325 37.7601 45.7672C38.0489 45.4838 38.3311 45.1897 38.6069 44.8859Z" fill="#FFD9F0"/>
<path d="M44.4015 32.3422C44.3594 32.538 44.3155 32.7333 44.2695 32.9281C44.0435 33.8819 43.772 34.817 43.4586 35.7275C43.5862 35.7498 43.7137 35.7717 43.8412 35.7942C44.1505 34.8899 44.419 33.9623 44.6434 33.0162C44.9212 31.8359 45.1318 30.6409 45.2749 29.437C45.253 29.4258 45.231 29.4142 45.2091 29.4024C45.0143 30.4009 44.7446 31.3836 44.4015 32.3422Z" fill="#FFD9F0"/>
<path d="M9.01341 36.0879C8.88586 36.1099 8.75803 36.1314 8.63074 36.1539C9.78147 39.3871 11.4392 42.2513 13.4692 44.5707C13.6072 44.5348 13.7454 44.4993 13.8837 44.4648C11.8401 42.1713 10.1705 39.3185 9.01341 36.0879Z" fill="#FFD9F0"/>
<path d="M38.4671 44.467C38.6064 44.5018 38.7457 44.5372 38.8847 44.5736C40.9206 42.2409 42.575 39.3517 43.7152 36.1546C43.5874 36.1321 43.4596 36.1102 43.3318 36.0882C42.1852 39.2827 40.5173 42.1614 38.4671 44.467Z" fill="#FFD9F0"/>
<path d="M26.165 50.8086C26.1389 50.8086 26.1123 50.8071 26.0857 50.8043C25.9117 50.8043 25.7377 50.8026 25.5642 50.7991C25.7656 50.807 25.9675 50.8116 26.1705 50.8116C26.3798 50.8116 26.5884 50.8073 26.7967 50.7985C26.6124 50.8026 26.428 50.8045 26.2432 50.8043C26.2171 50.8068 26.1913 50.8086 26.165 50.8086Z" fill="#FFD9F0"/>
<path d="M28.6193 50.2226C28.5418 50.2597 28.4644 50.2953 28.3864 50.3291C29.418 50.2369 30.445 50.0801 31.4613 49.8592C31.8496 49.7156 32.234 49.5562 32.6144 49.3806C31.7141 49.6245 30.7932 49.8184 29.8554 49.9594C29.4467 50.0646 29.0346 50.1527 28.6193 50.2226Z" fill="#FFD9F0"/>
<path d="M26.1041 50.4267C26.1061 50.427 26.1082 50.4274 26.11 50.4277H26.2306C26.2327 50.4274 26.2345 50.4272 26.2362 50.4267C26.2143 50.4267 26.1925 50.4272 26.1706 50.4272C26.1483 50.4272 26.1263 50.4267 26.1041 50.4267Z" fill="#FFD9F0"/>
<path d="M22.5321 49.9661C21.6029 49.8282 20.6907 49.6383 19.7984 49.3995C20.1767 49.5728 20.5601 49.7312 20.9483 49.8741C21.9385 50.0865 22.939 50.238 23.9435 50.3281C23.8617 50.2927 23.7804 50.2551 23.6991 50.2157C23.3063 50.1481 22.917 50.0649 22.5321 49.9661Z" fill="#FFD9F0"/>
<path d="M43.3318 36.0882C43.4596 36.1102 43.5874 36.1321 43.7152 36.1546C43.7582 36.0351 43.7998 35.915 43.8412 35.7942C43.7137 35.7717 43.5862 35.7498 43.4586 35.7275C43.4172 35.8481 43.375 35.9684 43.3318 36.0882Z" fill="#FFD9F0"/>
<path d="M9.01341 36.0879C8.97047 35.9681 8.92829 35.8475 8.88688 35.7267C8.7596 35.7487 8.63227 35.7707 8.50524 35.7932C8.54665 35.9141 8.58805 36.0341 8.63074 36.1539C8.75803 36.1314 8.88586 36.1099 9.01341 36.0879Z" fill="#FFD9F0"/>
<path d="M13.4692 44.5707C13.5612 44.6756 13.6537 44.7798 13.7473 44.8824C13.8871 44.8469 14.0271 44.8116 14.1672 44.7771C14.0718 44.6744 13.9775 44.57 13.8837 44.4648C13.7454 44.4993 13.6072 44.5348 13.4692 44.5707Z" fill="#FFD9F0"/>
<path d="M38.1837 44.7795C38.3248 44.8143 38.466 44.8498 38.6069 44.8859C38.7002 44.783 38.793 44.6788 38.8847 44.5736C38.7457 44.5372 38.6064 44.5018 38.4671 44.467C38.3736 44.5724 38.279 44.6766 38.1837 44.7795Z" fill="#FFD9F0"/>
<path d="M20.9483 49.8741C20.9627 49.8792 20.9767 49.8843 20.9907 49.8894C21.9613 50.096 22.9523 50.2459 23.9604 50.3353C23.9548 50.3329 23.9491 50.3306 23.9435 50.3281C22.939 50.238 21.9385 50.0865 20.9483 49.8741Z" fill="#FFD9F0"/>
<path d="M28.3864 50.3291C28.3808 50.3314 28.3752 50.334 28.3699 50.3363C29.4053 50.2451 30.4226 50.09 31.4182 49.8753C31.4325 49.8699 31.447 49.8644 31.4613 49.8592C30.445 50.0801 29.418 50.2369 28.3864 50.3291Z" fill="#FFD9F0"/>
<path d="M26.082 50.8039C25.8714 50.8031 25.6616 50.7997 25.4523 50.7941C25.4894 50.7959 25.5269 50.7975 25.5642 50.7991C25.7377 50.8026 25.9117 50.8043 26.0857 50.8043C26.0845 50.804 26.0833 50.8042 26.082 50.8039Z" fill="#FFD9F0"/>
<path d="M26.2458 50.804C26.2448 50.804 26.2442 50.8043 26.2432 50.8043C26.428 50.8045 26.6122 50.8024 26.7967 50.7985C26.834 50.797 26.8715 50.7952 26.9085 50.7934C26.6882 50.7998 26.4674 50.8032 26.2458 50.804Z" fill="#FFD9F0"/>
<path d="M26.11 50.4277C26.1276 50.4305 26.144 50.432 26.1591 50.4325C26.163 50.4325 26.1665 50.4328 26.1706 50.4328C26.1742 50.4328 26.1778 50.4325 26.1814 50.4325C26.1964 50.4323 26.2128 50.4307 26.2306 50.4277H26.11Z" fill="#FFD9F0"/>
<path d="M26.0635 50.8016C25.3493 50.7878 24.6462 50.6304 23.9604 50.3353C22.9523 50.2459 21.9613 50.096 20.9907 49.8894C22.4186 50.4098 23.9128 50.7201 25.4523 50.7941C25.6616 50.7997 25.8714 50.8031 26.082 50.8039C26.0759 50.8031 26.0696 50.8024 26.0635 50.8016Z" fill="#FFD9F0"/>
<path d="M28.3699 50.3363C27.6831 50.6314 26.9785 50.7885 26.2636 50.8016C26.2577 50.8024 26.252 50.8035 26.2458 50.804C26.4674 50.8032 26.6882 50.7998 26.9085 50.7934C28.4503 50.7187 29.961 50.4095 31.4182 49.8753C30.4226 50.09 29.4053 50.2451 28.3699 50.3363Z" fill="#FFD9F0"/>
<path d="M26.1041 50.4267C26.0295 50.4262 25.9551 50.4254 25.8804 50.4239C25.8973 50.4249 25.9142 50.4259 25.9311 50.4269C25.9909 50.4274 26.0504 50.4274 26.11 50.4277C26.1082 50.4274 26.1061 50.427 26.1041 50.4267Z" fill="#FFD9F0"/>
<path d="M26.1705 50.8045C26.1421 50.8045 26.1141 50.8043 26.0857 50.8043C26.1126 50.8074 26.1389 50.8086 26.165 50.8086C26.1913 50.8086 26.2171 50.8068 26.2432 50.8043C26.2189 50.804 26.1948 50.8045 26.1705 50.8045Z" fill="#FFD9F0"/>
<path d="M26.2306 50.4277C26.2905 50.4274 26.3503 50.4274 26.4102 50.4269C26.4263 50.4261 26.4425 50.4249 26.4586 50.4239C26.3847 50.4252 26.3104 50.4265 26.2362 50.4267C26.2345 50.4272 26.2327 50.4274 26.2306 50.4277Z" fill="#FFD9F0"/>
<path d="M26.1814 50.4325C26.2578 50.4323 26.334 50.4308 26.4102 50.4269C26.3503 50.4274 26.2905 50.4274 26.2306 50.4277C26.2128 50.4307 26.1964 50.4323 26.1814 50.4325Z" fill="#FFD9F0"/>
<path d="M26.082 50.8039C26.0833 50.8042 26.0845 50.804 26.0857 50.8043C26.1141 50.8043 26.1421 50.8045 26.1705 50.8045C26.1408 50.8045 26.1114 50.8039 26.082 50.8039Z" fill="#FFD9F0"/>
<path d="M26.2432 50.8043C26.2442 50.8043 26.2448 50.804 26.2458 50.804C26.2205 50.804 26.1955 50.8045 26.1705 50.8045C26.1948 50.8045 26.2189 50.804 26.2432 50.8043Z" fill="#FFD9F0"/>
<path d="M25.9311 50.4269C26.0067 50.4305 26.0832 50.4323 26.1591 50.4325C26.144 50.432 26.1276 50.4305 26.11 50.4277C26.0504 50.4274 25.9909 50.4274 25.9311 50.4269Z" fill="#FFD9F0"/>
<path d="M26.0635 50.8016C26.0696 50.8024 26.0759 50.8031 26.082 50.8039C26.1114 50.8039 26.1408 50.8045 26.1705 50.8045C26.1955 50.8045 26.2205 50.804 26.2458 50.804C26.252 50.8035 26.2577 50.8024 26.2636 50.8016C26.2311 50.8024 26.1987 50.8029 26.1662 50.8029C26.132 50.8029 26.0977 50.8024 26.0635 50.8016Z" fill="#FFD9F0"/>
<path d="M23.6991 50.2157C23.7804 50.2551 23.8617 50.2927 23.9435 50.3281C24.4322 50.3718 24.9217 50.4014 25.412 50.4162C25.4089 50.4132 25.4059 50.4098 25.4029 50.4065C24.828 50.3763 24.2597 50.3122 23.6991 50.2157Z" fill="#FFD9F0"/>
<path d="M26.9359 50.4073C26.9331 50.4103 26.9299 50.4133 26.9271 50.4163C27.4143 50.4015 27.9008 50.3726 28.3864 50.3291C28.4641 50.2955 28.5421 50.26 28.6193 50.2226C28.0633 50.3163 27.5018 50.3781 26.9359 50.4073Z" fill="#FFD9F0"/>
<path d="M26.1706 50.4328C26.1665 50.4328 26.163 50.4325 26.1591 50.4325C26.1619 50.4328 26.1646 50.4328 26.1675 50.4328L26.1814 50.4325L26.1706 50.4328Z" fill="#FFD9F0"/>
<path d="M25.412 50.4162C24.9217 50.4014 24.4322 50.3718 23.9435 50.3281C23.9491 50.3306 23.9548 50.3329 23.9604 50.3353C24.442 50.3777 24.9275 50.4063 25.4165 50.4212C25.4149 50.4194 25.4135 50.4178 25.412 50.4162Z" fill="#FFD9F0"/>
<path d="M26.9271 50.4163C26.9256 50.4179 26.9241 50.4194 26.9225 50.4212C27.4084 50.4066 27.8911 50.3785 28.3699 50.3363C28.3755 50.334 28.3811 50.3316 28.3864 50.3291C27.9008 50.3726 27.4143 50.4015 26.9271 50.4163Z" fill="#FFD9F0"/>
<path d="M25.4165 50.4212C24.9275 50.4063 24.442 50.3777 23.9604 50.3353C24.646 50.6301 25.3493 50.7878 26.0635 50.8016C25.8646 50.7742 25.6465 50.6641 25.4165 50.4212Z" fill="#FFD9F0"/>
<path d="M26.2636 50.8016C26.9785 50.7885 27.6831 50.6314 28.3699 50.3363C27.8911 50.3785 27.4084 50.4066 26.9225 50.4212C26.7163 50.6391 26.4967 50.7722 26.2636 50.8016Z" fill="#FFD9F0"/>
<path d="M26.4586 50.4239C26.4425 50.4249 26.4263 50.4261 26.4102 50.4269C26.5824 50.4251 26.7546 50.4214 26.9271 50.4163C26.9299 50.4133 26.9331 50.4103 26.9359 50.4073C26.7771 50.4155 26.6181 50.4208 26.4586 50.4239Z" fill="#FFD9F0"/>
<path d="M25.8804 50.4239C25.7207 50.4206 25.5616 50.4149 25.4029 50.4065C25.4059 50.4098 25.4089 50.4132 25.412 50.4162C25.585 50.4216 25.758 50.4254 25.9311 50.4269C25.9142 50.4259 25.8973 50.4249 25.8804 50.4239Z" fill="#FFD9F0"/>
<path d="M26.1814 50.4325C26.1788 50.4325 26.1762 50.4329 26.1736 50.4329C26.4241 50.4326 26.6738 50.4286 26.9225 50.4212C26.9241 50.4194 26.9256 50.4179 26.9271 50.4163C26.7548 50.4217 26.5824 50.4254 26.4102 50.4269C26.334 50.4308 26.2578 50.4323 26.1814 50.4325Z" fill="#FFD9F0"/>
<path d="M25.9311 50.4269C25.758 50.4254 25.585 50.4216 25.412 50.4162C25.4135 50.4178 25.4149 50.4194 25.4165 50.4212C25.666 50.4286 25.9162 50.4328 26.1675 50.4328L26.1591 50.4325C26.0832 50.4323 26.0067 50.4305 25.9311 50.4269Z" fill="#FFD9F0"/>
<path d="M26.9225 50.4212C26.6738 50.4286 26.4241 50.4326 26.1736 50.4329L26.1675 50.4328C25.9162 50.4328 25.666 50.4286 25.4165 50.4212C25.6463 50.6638 25.8646 50.7745 26.0635 50.8016C26.0977 50.8024 26.132 50.8029 26.1662 50.8029C26.1987 50.8029 26.2311 50.8024 26.2636 50.8016C26.4967 50.7722 26.7163 50.6391 26.9225 50.4212Z" fill="#FFD9F0"/>
<path d="M7.18136 29.5887H7.46048C7.46866 29.623 7.47729 29.6574 7.48573 29.6917C7.47704 29.6257 7.46861 29.5596 7.46043 29.4936H7.07395C7.0829 29.5668 7.0921 29.64 7.10156 29.7129L7.20662 29.713C7.19818 29.6715 7.18954 29.6301 7.18136 29.5887Z" fill="#FFD9F0"/>
<path d="M45.2637 28.1016L45.0326 27.9357C45.0017 28.366 44.9618 28.7956 44.9133 29.2238C44.9539 29.2512 44.9953 29.2779 45.0372 29.3038C45.1246 28.9057 45.2 28.5048 45.2637 28.1016Z" fill="#FFD9F0"/>
<path d="M45.2091 29.4024C45.231 29.4142 45.253 29.4258 45.2749 29.437C45.3179 29.0774 45.3542 28.7167 45.3848 28.3555C45.3353 28.7062 45.2768 29.0553 45.2091 29.4024Z" fill="#FFD9F0"/>
<path d="M45.2091 29.4024C45.1508 29.3709 45.0935 29.3383 45.0372 29.3038C44.9526 29.6898 44.8568 30.073 44.7499 30.4533C44.653 31.0861 44.5367 31.7161 44.4015 32.3422C44.7446 31.3836 45.0143 30.4009 45.2091 29.4024Z" fill="#FFD9F0"/>
<path d="M7.20662 29.713C7.39653 30.6432 7.65087 31.5586 7.96757 32.4527C7.76999 31.5591 7.60947 30.6447 7.48831 29.713H7.20662Z" fill="#FFD9F0"/>
<path d="M7.48573 29.6917C7.47729 29.6574 7.46866 29.623 7.46048 29.5887H7.18136C7.18954 29.6301 7.19818 29.6715 7.20662 29.713H7.48831C7.48729 29.7058 7.48675 29.6986 7.48573 29.6917Z" fill="#FFD9F0"/>
<path d="M45.3982 28.1981L45.2637 28.1016C45.2 28.5048 45.1246 28.9057 45.0372 29.3038C45.0935 29.3383 45.1508 29.3709 45.2091 29.4024C45.2768 29.0553 45.3353 28.7062 45.3848 28.3555C45.3892 28.3031 45.3941 28.2506 45.3982 28.1981Z" fill="#FFD9F0"/>
<path d="M0.766192 23.5903C0.767982 23.5647 0.770025 23.5393 0.772071 23.5137L0.633789 23.5639L0.766192 23.5903Z" fill="#FFD9F0"/>
</svg>
